<svg width="625" height="383" viewBox="0 0 625 383" fill="none" xmlns="http://www.w3.org/2000/svg">
<g clip-path="url(#clip0_201_2)">
<rect width="625" height="383" fill="#FF8A00"/>
<path d="M211.944 84.84V129H219.752V84.84H211.944ZM250.336 84.84H242.464V109.416L233.248 84.84H225.376V129H233.248V105.448L242.464 129H250.336V84.84ZM258.76 126.312C260.936 128.488 263.944 129.512 267.784 129.512C271.496 129.512 274.568 128.424 276.936 126.248C279.304 124.072 280.52 120.936 280.52 116.84V105.448H267.976V111.656H272.648V116.328C272.648 118.312 272.264 119.848 271.496 120.872C270.728 121.896 269.576 122.408 268.04 122.408C264.84 122.408 263.304 120.296 263.304 115.944V98.216C263.304 95.912 263.624 94.184 264.392 93.032C265.16 91.88 266.376 91.304 268.04 91.304C269.384 91.304 270.472 91.816 271.368 92.712C272.2 93.608 272.648 94.952 272.648 96.616V97.96H280.52V96.616C280.52 92.52 279.368 89.448 277.128 87.336C274.824 85.288 271.88 84.2 268.232 84.2C264.392 84.2 261.256 85.288 258.952 87.464C256.584 89.64 255.432 92.776 255.432 96.936V116.84C255.432 121 256.52 124.136 258.76 126.312ZM297.274 111.272L302.842 129H311.034L304.442 109.8C306.234 108.84 307.578 107.368 308.41 105.384C309.178 103.464 309.626 100.968 309.626 98.024C309.626 93.416 308.666 90.088 306.874 87.976C305.082 85.928 302.01 84.84 297.658 84.84H285.626V129H293.498V111.272H297.274ZM293.498 104.232V91.88H297.594C299.194 91.88 300.282 92.392 300.858 93.416C301.434 94.44 301.753 95.976 301.753 98.024C301.753 100.072 301.434 101.672 300.858 102.696C300.218 103.72 299.13 104.232 297.594 104.232H293.498ZM322.871 91.944H334.775V84.84H315.063V129H334.775V121.96H322.871V110.056H333.111V103.016H322.871V91.944ZM340.727 126.12C342.775 128.424 345.719 129.512 349.623 129.512C353.527 129.512 356.535 128.424 358.711 126.184C360.823 124.008 361.911 120.808 361.911 116.712C361.911 113.32 361.207 110.568 359.799 108.52C358.391 106.472 356.215 104.808 353.143 103.4L350.263 102.12C348.599 101.416 347.383 100.584 346.679 99.688C345.975 98.792 345.655 97.512 345.655 95.976C345.655 92.648 347.063 90.92 349.943 90.92C351.479 90.92 352.567 91.432 353.207 92.456C353.847 93.48 354.231 94.952 354.295 96.936H361.527C361.399 92.84 360.311 89.64 358.327 87.464C356.343 85.288 353.527 84.136 349.943 84.136C346.231 84.136 343.351 85.288 341.175 87.464C338.999 89.704 337.975 92.648 337.975 96.36C337.975 99.56 338.551 102.056 339.831 103.912C341.111 105.832 343.159 107.368 346.039 108.648L349.047 109.992C350.903 110.888 352.247 111.784 353.015 112.808C353.783 113.832 354.231 115.176 354.231 116.84C354.231 118.888 353.847 120.424 353.143 121.32C352.439 122.28 351.351 122.728 349.815 122.728C348.279 122.728 347.063 122.216 346.295 121.192C345.527 120.168 345.079 118.568 345.015 116.392H337.591C337.591 120.616 338.679 123.88 340.727 126.12ZM367.977 126.12C370.025 128.424 372.969 129.512 376.873 129.512C380.777 129.512 383.785 128.424 385.961 126.184C388.073 124.008 389.161 120.808 389.161 116.712C389.161 113.32 388.457 110.568 387.049 108.52C385.641 106.472 383.465 104.808 380.393 103.4L377.513 102.12C375.849 101.416 374.633 100.584 373.929 99.688C373.225 98.792 372.905 97.512 372.905 95.976C372.905 92.648 374.313 90.92 377.193 90.92C378.729 90.92 379.817 91.432 380.457 92.456C381.097 93.48 381.481 94.952 381.545 96.936H388.777C388.649 92.84 387.561 89.64 385.577 87.464C383.593 85.288 380.777 84.136 377.193 84.136C373.481 84.136 370.601 85.288 368.425 87.464C366.249 89.704 365.225 92.648 365.225 96.36C365.225 99.56 365.801 102.056 367.081 103.912C368.361 105.832 370.409 107.368 373.289 108.648L376.297 109.992C378.153 110.888 379.497 111.784 380.265 112.808C381.033 113.832 381.481 115.176 381.481 116.84C381.481 118.888 381.097 120.424 380.393 121.32C379.689 122.28 378.601 122.728 377.065 122.728C375.529 122.728 374.313 122.216 373.545 121.192C372.777 120.168 372.329 118.568 372.265 116.392H364.841C364.841 120.616 365.929 123.88 367.977 126.12ZM411.547 120.424L413.339 129H421.531L410.267 84.84H402.587L391.259 129H399.451L401.243 120.424H411.547ZM410.139 113.384H402.715L406.427 95.464L410.139 113.384ZM449.586 84.84H441.714V109.416L432.498 84.84H424.626V129H432.498V105.448L441.714 129H449.586V84.84ZM475.61 91.944V84.84H452.506V91.944H460.186V129H467.994V91.944H475.61ZM486.371 91.944H498.275V84.84H478.563V129H498.275V121.96H486.371V110.056H496.611V103.016H486.371V91.944Z" fill="white"/>
<path d="M207.384 199.16H204.756L196.728 215.9L188.664 199.16H186.036V224H188.664V204.56L195.72 219.032H197.736L204.756 204.56V224H207.384V199.16ZM223.726 207.044C222.574 206.036 220.954 205.496 218.83 205.496C216.85 205.496 215.302 205.964 214.186 206.9C213.034 207.836 212.494 209.096 212.494 210.644V210.824H214.87V210.716C214.87 209.744 215.194 208.988 215.914 208.412C216.634 207.836 217.606 207.548 218.866 207.548C220.162 207.548 221.206 207.908 221.926 208.556C222.646 209.24 223.006 210.248 223.006 211.544V213.632H218.074C216.13 213.632 214.618 214.1 213.538 215.036C212.458 215.972 211.954 217.232 211.954 218.852C211.954 220.616 212.458 221.948 213.538 222.848C214.582 223.784 216.058 224.216 218.002 224.216C219.154 224.216 220.162 224.072 220.99 223.712C221.782 223.352 222.466 222.812 223.042 222.056V224H225.454V211.58C225.454 209.6 224.878 208.088 223.726 207.044ZM221.89 221.156C221.17 221.876 219.982 222.236 218.398 222.236C215.734 222.236 214.402 221.12 214.402 218.816C214.402 216.584 215.734 215.432 218.434 215.432H223.006V217.808C223.006 219.32 222.61 220.436 221.89 221.156ZM230.856 205.748V224H233.304V212.372C233.304 210.896 233.664 209.744 234.456 208.952C235.248 208.16 236.292 207.728 237.588 207.728C238.884 207.728 239.928 208.124 240.684 208.916C241.404 209.708 241.8 210.86 241.8 212.372V224H244.248V212.012C244.248 209.996 243.708 208.412 242.664 207.26C241.62 206.108 240.144 205.532 238.2 205.532C237.12 205.532 236.184 205.748 235.32 206.144C234.456 206.576 233.772 207.188 233.268 207.98V205.748H230.856ZM250.817 222.416C251.969 223.64 253.445 224.216 255.245 224.216C256.397 224.216 257.369 224 258.197 223.568C259.025 223.136 259.673 222.452 260.177 221.588V224H262.661V199.16H260.177V208.304C259.097 206.432 257.477 205.496 255.281 205.496C253.445 205.496 251.969 206.108 250.817 207.332C249.665 208.556 249.089 210.428 249.089 212.984V216.728C249.089 219.32 249.665 221.192 250.817 222.416ZM259.025 220.508C258.233 221.516 257.117 222.02 255.605 222.02C252.905 222.02 251.573 220.22 251.573 216.584V213.128C251.573 209.528 252.941 207.728 255.749 207.728C257.189 207.728 258.305 208.268 259.061 209.276C259.781 210.284 260.177 211.652 260.177 213.344V216.548C260.177 218.204 259.781 219.5 259.025 220.508ZM269.924 215.36H281.336V213.2C281.336 210.608 280.688 208.664 279.428 207.404C278.168 206.144 276.512 205.496 274.424 205.496C272.336 205.496 270.644 206.144 269.384 207.404C268.088 208.664 267.476 210.608 267.476 213.2V216.368C267.476 219.068 268.088 221.048 269.384 222.308C270.644 223.604 272.336 224.216 274.496 224.216C276.584 224.216 278.204 223.712 279.392 222.668C280.58 221.66 281.192 220.292 281.192 218.564V218.384H278.816V218.492C278.816 219.608 278.42 220.472 277.7 221.084C276.98 221.732 275.972 222.02 274.676 222.02C273.164 222.02 272.012 221.624 271.184 220.796C270.32 219.968 269.924 218.528 269.924 216.44V215.36ZM271.148 208.952C271.94 208.16 273.056 207.728 274.424 207.728C275.792 207.728 276.908 208.124 277.7 208.88C278.492 209.672 278.888 211.004 278.888 212.876V213.524H269.924V213.128C269.924 211.148 270.32 209.744 271.148 208.952ZM294.754 222.776C295.942 223.748 297.526 224.216 299.542 224.216C301.63 224.216 303.286 223.748 304.546 222.812C305.77 221.876 306.418 220.508 306.418 218.78C306.418 217.34 305.986 216.26 305.122 215.504C304.258 214.748 302.962 214.208 301.162 213.848L298.786 213.416C297.67 213.236 296.878 212.912 296.374 212.48C295.87 212.048 295.618 211.4 295.618 210.608C295.618 209.672 295.942 208.916 296.662 208.34C297.382 207.8 298.354 207.512 299.65 207.512C300.946 207.512 301.954 207.8 302.71 208.34C303.43 208.916 303.826 209.672 303.826 210.608V210.716H306.202V210.5C306.202 209.024 305.59 207.836 304.402 206.9C303.178 205.964 301.594 205.496 299.578 205.496C297.706 205.496 296.158 206 295.006 206.936C293.818 207.872 293.242 209.132 293.242 210.716C293.242 212.156 293.638 213.236 294.466 213.956C295.258 214.712 296.554 215.252 298.354 215.54L300.622 215.936C301.81 216.152 302.674 216.476 303.214 216.908C303.754 217.34 304.042 218.024 304.042 218.924C304.042 219.968 303.646 220.76 302.854 221.3C302.062 221.876 301.018 222.128 299.65 222.128C298.318 222.128 297.274 221.84 296.482 221.264C295.69 220.688 295.33 219.86 295.33 218.852V218.744H292.954V218.888C292.954 220.544 293.53 221.84 294.754 222.776ZM312.247 222.452C313.363 223.64 315.019 224.216 317.251 224.216C319.483 224.216 321.175 223.64 322.291 222.452C323.407 221.264 323.983 219.536 323.983 217.304V205.748H321.535V216.98C321.535 218.708 321.211 220.004 320.563 220.796C319.915 221.624 318.799 222.02 317.287 222.02C315.739 222.02 314.659 221.624 314.011 220.76C313.363 219.932 313.039 218.672 313.039 216.98V205.748H310.591V217.304C310.591 219.536 311.131 221.264 312.247 222.452ZM340.163 207.044C339.011 206.036 337.391 205.496 335.267 205.496C333.287 205.496 331.739 205.964 330.623 206.9C329.471 207.836 328.931 209.096 328.931 210.644V210.824H331.307V210.716C331.307 209.744 331.631 208.988 332.351 208.412C333.071 207.836 334.043 207.548 335.303 207.548C336.599 207.548 337.643 207.908 338.363 208.556C339.083 209.24 339.443 210.248 339.443 211.544V213.632H334.511C332.567 213.632 331.055 214.1 329.975 215.036C328.895 215.972 328.391 217.232 328.391 218.852C328.391 220.616 328.895 221.948 329.975 222.848C331.019 223.784 332.495 224.216 334.439 224.216C335.591 224.216 336.599 224.072 337.427 223.712C338.219 223.352 338.903 222.812 339.479 222.056V224H341.891V211.58C341.891 209.6 341.315 208.088 340.163 207.044ZM338.327 221.156C337.607 221.876 336.419 222.236 334.835 222.236C332.171 222.236 330.839 221.12 330.839 218.816C330.839 216.584 332.171 215.432 334.871 215.432H339.443V217.808C339.443 219.32 339.047 220.436 338.327 221.156ZM348.086 222.776C349.274 223.748 350.858 224.216 352.874 224.216C354.962 224.216 356.618 223.748 357.878 222.812C359.102 221.876 359.75 220.508 359.75 218.78C359.75 217.34 359.318 216.26 358.454 215.504C357.59 214.748 356.294 214.208 354.494 213.848L352.118 213.416C351.002 213.236 350.21 212.912 349.706 212.48C349.202 212.048 348.95 211.4 348.95 210.608C348.95 209.672 349.274 208.916 349.994 208.34C350.714 207.8 351.686 207.512 352.982 207.512C354.278 207.512 355.286 207.8 356.042 208.34C356.762 208.916 357.158 209.672 357.158 210.608V210.716H359.534V210.5C359.534 209.024 358.922 207.836 357.734 206.9C356.51 205.964 354.926 205.496 352.91 205.496C351.038 205.496 349.49 206 348.338 206.936C347.15 207.872 346.574 209.132 346.574 210.716C346.574 212.156 346.97 213.236 347.798 213.956C348.59 214.712 349.886 215.252 351.686 215.54L353.954 215.936C355.142 216.152 356.006 216.476 356.546 216.908C357.086 217.34 357.374 218.024 357.374 218.924C357.374 219.968 356.978 220.76 356.186 221.3C355.394 221.876 354.35 222.128 352.982 222.128C351.65 222.128 350.606 221.84 349.814 221.264C349.022 220.688 348.662 219.86 348.662 218.852V218.744H346.286V218.888C346.286 220.544 346.862 221.84 348.086 222.776ZM371.727 205.748V224H374.175V212.372C374.175 210.896 374.535 209.744 375.327 208.952C376.119 208.16 377.163 207.728 378.459 207.728C379.755 207.728 380.799 208.124 381.555 208.916C382.275 209.708 382.671 210.86 382.671 212.372V224H385.119V212.012C385.119 209.996 384.579 208.412 383.535 207.26C382.491 206.108 381.015 205.532 379.071 205.532C377.991 205.532 377.055 205.748 376.191 206.144C375.327 206.576 374.643 207.188 374.139 207.98V205.748H371.727ZM391.868 222.452C393.128 223.64 394.82 224.216 396.98 224.216C399.068 224.216 400.724 223.64 401.984 222.416C403.244 221.228 403.892 219.32 403.892 216.728V212.984C403.892 210.392 403.244 208.52 401.984 207.296C400.724 206.108 399.068 205.496 396.98 205.496C394.82 205.496 393.128 206.108 391.868 207.296C390.572 208.52 389.96 210.392 389.96 212.984V216.728C389.96 219.356 390.572 221.264 391.868 222.452ZM400.22 220.832C399.428 221.624 398.348 222.02 396.98 222.02C395.54 222.02 394.424 221.624 393.632 220.832C392.804 220.04 392.408 218.6 392.408 216.584V213.128C392.408 211.148 392.804 209.744 393.632 208.952C394.424 208.16 395.54 207.728 396.98 207.728C398.348 207.728 399.428 208.16 400.22 208.952C401.012 209.744 401.444 211.148 401.444 213.128V216.584C401.444 218.6 401.012 220.04 400.22 220.832ZM412.564 207.692H416.668V205.748H412.564V200.42L410.08 201.572V205.748H407.236V207.692H410.08V219.464C410.08 220.904 410.44 222.02 411.232 222.812C412.024 223.604 413.104 224 414.508 224H416.344V221.84H414.904C413.32 221.84 412.564 221.012 412.564 219.356V207.692ZM431.71 207.044C430.558 206.036 428.938 205.496 426.814 205.496C424.834 205.496 423.286 205.964 422.17 206.9C421.018 207.836 420.478 209.096 420.478 210.644V210.824H422.854V210.716C422.854 209.744 423.178 208.988 423.898 208.412C424.618 207.836 425.59 207.548 426.85 207.548C428.146 207.548 429.19 207.908 429.91 208.556C430.63 209.24 430.99 210.248 430.99 211.544V213.632H426.058C424.114 213.632 422.602 214.1 421.522 215.036C420.442 215.972 419.938 217.232 419.938 218.852C419.938 220.616 420.442 221.948 421.522 222.848C422.566 223.784 424.042 224.216 425.986 224.216C427.138 224.216 428.146 224.072 428.974 223.712C429.766 223.352 430.45 222.812 431.026 222.056V224H433.438V211.58C433.438 209.6 432.862 208.088 431.71 207.044ZM429.874 221.156C429.154 221.876 427.966 222.236 426.382 222.236C423.718 222.236 422.386 221.12 422.386 218.816C422.386 216.584 423.718 215.432 426.418 215.432H430.99V217.808C430.99 219.32 430.594 220.436 429.874 221.156ZM439.633 222.776C440.821 223.748 442.405 224.216 444.421 224.216C446.509 224.216 448.165 223.748 449.425 222.812C450.649 221.876 451.297 220.508 451.297 218.78C451.297 217.34 450.865 216.26 450.001 215.504C449.137 214.748 447.841 214.208 446.041 213.848L443.665 213.416C442.549 213.236 441.757 212.912 441.253 212.48C440.749 212.048 440.497 211.4 440.497 210.608C440.497 209.672 440.821 208.916 441.541 208.34C442.261 207.8 443.233 207.512 444.529 207.512C445.825 207.512 446.833 207.8 447.589 208.34C448.309 208.916 448.705 209.672 448.705 210.608V210.716H451.081V210.5C451.081 209.024 450.469 207.836 449.281 206.9C448.057 205.964 446.473 205.496 444.457 205.496C442.585 205.496 441.037 206 439.885 206.936C438.697 207.872 438.121 209.132 438.121 210.716C438.121 212.156 438.517 213.236 439.345 213.956C440.137 214.712 441.433 215.252 443.233 215.54L445.501 215.936C446.689 216.152 447.553 216.476 448.093 216.908C448.633 217.34 448.921 218.024 448.921 218.924C448.921 219.968 448.525 220.76 447.733 221.3C446.941 221.876 445.897 222.128 444.529 222.128C443.197 222.128 442.153 221.84 441.361 221.264C440.569 220.688 440.209 219.86 440.209 218.852V218.744H437.833V218.888C437.833 220.544 438.409 221.84 439.633 222.776ZM463.274 205.748V229.472H465.722V221.588C466.73 223.352 468.35 224.216 470.654 224.216C472.454 224.216 473.93 223.64 475.082 222.416C476.234 221.228 476.81 219.32 476.81 216.728V212.984C476.81 210.428 476.198 208.556 475.046 207.332C473.858 206.144 472.346 205.532 470.474 205.532C469.394 205.532 468.458 205.784 467.666 206.252C466.838 206.72 466.19 207.404 465.722 208.304V205.748H463.274ZM474.362 216.584C474.362 220.22 472.994 222.02 470.294 222.02C468.782 222.02 467.666 221.516 466.874 220.508C466.082 219.5 465.722 218.168 465.722 216.548V213.344C465.722 211.652 466.082 210.284 466.838 209.276C467.558 208.268 468.674 207.728 470.15 207.728C472.958 207.728 474.362 209.564 474.362 213.164V216.584ZM492.39 207.044C491.238 206.036 489.618 205.496 487.494 205.496C485.514 205.496 483.966 205.964 482.85 206.9C481.698 207.836 481.158 209.096 481.158 210.644V210.824H483.534V210.716C483.534 209.744 483.858 208.988 484.578 208.412C485.298 207.836 486.27 207.548 487.53 207.548C488.826 207.548 489.87 207.908 490.59 208.556C491.31 209.24 491.67 210.248 491.67 211.544V213.632H486.738C484.794 213.632 483.282 214.1 482.202 215.036C481.122 215.972 480.618 217.232 480.618 218.852C480.618 220.616 481.122 221.948 482.202 222.848C483.246 223.784 484.722 224.216 486.666 224.216C487.818 224.216 488.826 224.072 489.654 223.712C490.446 223.352 491.13 222.812 491.706 222.056V224H494.118V211.58C494.118 209.6 493.542 208.088 492.39 207.044ZM490.554 221.156C489.834 221.876 488.646 222.236 487.062 222.236C484.398 222.236 483.066 221.12 483.066 218.816C483.066 216.584 484.398 215.432 487.098 215.432H491.67V217.808C491.67 219.32 491.274 220.436 490.554 221.156ZM499.52 205.748V224H501.968V212.444C501.968 211.076 502.328 209.924 503.12 209.06C503.912 208.196 504.92 207.764 506.18 207.764C506.828 207.764 507.476 207.872 508.052 208.052V205.604C507.62 205.532 507.152 205.496 506.72 205.496C505.676 205.496 504.74 205.748 503.912 206.18C503.084 206.612 502.436 207.296 501.932 208.196V205.748H499.52ZM522.413 207.044C521.261 206.036 519.641 205.496 517.517 205.496C515.537 205.496 513.989 205.964 512.873 206.9C511.721 207.836 511.181 209.096 511.181 210.644V210.824H513.557V210.716C513.557 209.744 513.881 208.988 514.601 208.412C515.321 207.836 516.293 207.548 517.553 207.548C518.849 207.548 519.893 207.908 520.613 208.556C521.333 209.24 521.693 210.248 521.693 211.544V213.632H516.761C514.817 213.632 513.305 214.1 512.225 215.036C511.145 215.972 510.641 217.232 510.641 218.852C510.641 220.616 511.145 221.948 512.225 222.848C513.269 223.784 514.745 224.216 516.689 224.216C517.841 224.216 518.849 224.072 519.677 223.712C520.469 223.352 521.153 222.812 521.729 222.056V224H524.141V211.58C524.141 209.6 523.565 208.088 522.413 207.044ZM520.577 221.156C519.857 221.876 518.669 222.236 517.085 222.236C514.421 222.236 513.089 221.12 513.089 218.816C513.089 216.584 514.421 215.432 517.121 215.432H521.693V217.808C521.693 219.32 521.297 220.436 520.577 221.156ZM224.534 246.044C223.382 245.036 221.762 244.496 219.638 244.496C217.658 244.496 216.11 244.964 214.994 245.9C213.842 246.836 213.302 248.096 213.302 249.644V249.824H215.678V249.716C215.678 248.744 216.002 247.988 216.722 247.412C217.442 246.836 218.414 246.548 219.674 246.548C220.97 246.548 222.014 246.908 222.734 247.556C223.454 248.24 223.814 249.248 223.814 250.544V252.632H218.882C216.938 252.632 215.426 253.1 214.346 254.036C213.266 254.972 212.762 256.232 212.762 257.852C212.762 259.616 213.266 260.948 214.346 261.848C215.39 262.784 216.866 263.216 218.81 263.216C219.962 263.216 220.97 263.072 221.798 262.712C222.59 262.352 223.274 261.812 223.85 261.056V263H226.262V250.58C226.262 248.6 225.686 247.088 224.534 246.044ZM222.698 260.156C221.978 260.876 220.79 261.236 219.206 261.236C216.542 261.236 215.21 260.12 215.21 257.816C215.21 255.584 216.542 254.432 219.242 254.432H223.814V256.808C223.814 258.32 223.418 259.436 222.698 260.156ZM231.557 238.16V241.4H234.149V238.16H231.557ZM227.885 266.24V268.472H229.613C231.053 268.472 232.169 268.076 232.961 267.248C233.717 266.456 234.113 265.268 234.113 263.684V244.748H231.665V263.54C231.665 264.476 231.485 265.16 231.125 265.592C230.765 266.024 230.153 266.24 229.361 266.24H227.885ZM241.442 261.452C242.558 262.64 244.214 263.216 246.446 263.216C248.678 263.216 250.37 262.64 251.486 261.452C252.602 260.264 253.178 258.536 253.178 256.304V244.748H250.73V255.98C250.73 257.708 250.406 259.004 249.758 259.796C249.11 260.624 247.994 261.02 246.482 261.02C244.934 261.02 243.854 260.624 243.206 259.76C242.558 258.932 242.234 257.672 242.234 255.98V244.748H239.786V256.304C239.786 258.536 240.326 260.264 241.442 261.452ZM259.747 261.416C260.899 262.64 262.375 263.216 264.175 263.216C265.327 263.216 266.299 263 267.127 262.568C267.955 262.136 268.603 261.452 269.107 260.588V263H271.591V238.16H269.107V247.304C268.027 245.432 266.407 244.496 264.211 244.496C262.375 244.496 260.899 245.108 259.747 246.332C258.595 247.556 258.019 249.428 258.019 251.984V255.728C258.019 258.32 258.595 260.192 259.747 261.416ZM267.955 259.508C267.163 260.516 266.047 261.02 264.535 261.02C261.835 261.02 260.503 259.22 260.503 255.584V252.128C260.503 248.528 261.871 246.728 264.679 246.728C266.119 246.728 267.235 247.268 267.991 248.276C268.711 249.284 269.107 250.652 269.107 252.344V255.548C269.107 257.204 268.711 258.5 267.955 259.508ZM287.745 246.044C286.593 245.036 284.973 244.496 282.849 244.496C280.869 244.496 279.321 244.964 278.205 245.9C277.053 246.836 276.513 248.096 276.513 249.644V249.824H278.889V249.716C278.889 248.744 279.213 247.988 279.933 247.412C280.653 246.836 281.625 246.548 282.885 246.548C284.181 246.548 285.225 246.908 285.945 247.556C286.665 248.24 287.025 249.248 287.025 250.544V252.632H282.093C280.149 252.632 278.637 253.1 277.557 254.036C276.477 254.972 275.973 256.232 275.973 257.852C275.973 259.616 276.477 260.948 277.557 261.848C278.601 262.784 280.077 263.216 282.021 263.216C283.173 263.216 284.181 263.072 285.009 262.712C285.801 262.352 286.485 261.812 287.061 261.056V263H289.473V250.58C289.473 248.6 288.897 247.088 287.745 246.044ZM285.909 260.156C285.189 260.876 284.001 261.236 282.417 261.236C279.753 261.236 278.421 260.12 278.421 257.816C278.421 255.584 279.753 254.432 282.453 254.432H287.025V256.808C287.025 258.32 286.629 259.436 285.909 260.156ZM294.876 244.748V263H297.324V251.444C297.324 250.076 297.684 248.924 298.476 248.06C299.268 247.196 300.276 246.764 301.536 246.764C302.184 246.764 302.832 246.872 303.408 247.052V244.604C302.976 244.532 302.508 244.496 302.076 244.496C301.032 244.496 300.096 244.748 299.268 245.18C298.44 245.612 297.792 246.296 297.288 247.196V244.748H294.876ZM316.141 261.452C317.401 262.64 319.093 263.216 321.253 263.216C323.341 263.216 324.997 262.64 326.257 261.416C327.517 260.228 328.165 258.32 328.165 255.728V251.984C328.165 249.392 327.517 247.52 326.257 246.296C324.997 245.108 323.341 244.496 321.253 244.496C319.093 244.496 317.401 245.108 316.141 246.296C314.845 247.52 314.233 249.392 314.233 251.984V255.728C314.233 258.356 314.845 260.264 316.141 261.452ZM324.493 259.832C323.701 260.624 322.621 261.02 321.253 261.02C319.813 261.02 318.697 260.624 317.905 259.832C317.077 259.04 316.681 257.6 316.681 255.584V252.128C316.681 250.148 317.077 248.744 317.905 247.952C318.697 247.16 319.813 246.728 321.253 246.728C322.621 246.728 323.701 247.16 324.493 247.952C325.285 248.744 325.717 250.148 325.717 252.128V255.584C325.717 257.6 325.285 259.04 324.493 259.832ZM333.777 261.776C334.965 262.748 336.549 263.216 338.565 263.216C340.653 263.216 342.309 262.748 343.569 261.812C344.793 260.876 345.441 259.508 345.441 257.78C345.441 256.34 345.009 255.26 344.145 254.504C343.281 253.748 341.985 253.208 340.185 252.848L337.809 252.416C336.693 252.236 335.901 251.912 335.397 251.48C334.893 251.048 334.641 250.4 334.641 249.608C334.641 248.672 334.965 247.916 335.685 247.34C336.405 246.8 337.377 246.512 338.673 246.512C339.969 246.512 340.977 246.8 341.733 247.34C342.453 247.916 342.849 248.672 342.849 249.608V249.716H345.225V249.5C345.225 248.024 344.613 246.836 343.425 245.9C342.201 244.964 340.617 244.496 338.601 244.496C336.729 244.496 335.181 245 334.029 245.936C332.841 246.872 332.265 248.132 332.265 249.716C332.265 251.156 332.661 252.236 333.489 252.956C334.281 253.712 335.577 254.252 337.377 254.54L339.645 254.936C340.833 255.152 341.697 255.476 342.237 255.908C342.777 256.34 343.065 257.024 343.065 257.924C343.065 258.968 342.669 259.76 341.877 260.3C341.085 260.876 340.041 261.128 338.673 261.128C337.341 261.128 336.297 260.84 335.505 260.264C334.713 259.688 334.353 258.86 334.353 257.852V257.744H331.977V257.888C331.977 259.544 332.553 260.84 333.777 261.776ZM357.419 244.748V268.472H359.867V260.588C360.875 262.352 362.495 263.216 364.799 263.216C366.599 263.216 368.075 262.64 369.227 261.416C370.379 260.228 370.955 258.32 370.955 255.728V251.984C370.955 249.428 370.343 247.556 369.191 246.332C368.003 245.144 366.491 244.532 364.619 244.532C363.539 244.532 362.603 244.784 361.811 245.252C360.983 245.72 360.335 246.404 359.867 247.304V244.748H357.419ZM368.507 255.584C368.507 259.22 367.139 261.02 364.439 261.02C362.927 261.02 361.811 260.516 361.019 259.508C360.227 258.5 359.867 257.168 359.867 255.548V252.344C359.867 250.652 360.227 249.284 360.983 248.276C361.703 247.268 362.819 246.728 364.295 246.728C367.103 246.728 368.507 248.564 368.507 252.164V255.584ZM375.77 244.748V263H378.218V251.444C378.218 250.076 378.578 248.924 379.37 248.06C380.162 247.196 381.17 246.764 382.43 246.764C383.078 246.764 383.726 246.872 384.302 247.052V244.604C383.87 244.532 383.402 244.496 382.97 244.496C381.926 244.496 380.99 244.748 380.162 245.18C379.334 245.612 378.686 246.296 378.182 247.196V244.748H375.77ZM389.231 261.452C390.491 262.64 392.183 263.216 394.343 263.216C396.431 263.216 398.087 262.64 399.347 261.416C400.607 260.228 401.255 258.32 401.255 255.728V251.984C401.255 249.392 400.607 247.52 399.347 246.296C398.087 245.108 396.431 244.496 394.343 244.496C392.183 244.496 390.491 245.108 389.231 246.296C387.935 247.52 387.323 249.392 387.323 251.984V255.728C387.323 258.356 387.935 260.264 389.231 261.452ZM397.583 259.832C396.791 260.624 395.711 261.02 394.343 261.02C392.903 261.02 391.787 260.624 390.995 259.832C390.167 259.04 389.771 257.6 389.771 255.584V252.128C389.771 250.148 390.167 248.744 390.995 247.952C391.787 247.16 392.903 246.728 394.343 246.728C395.711 246.728 396.791 247.16 397.583 247.952C398.375 248.744 398.807 250.148 398.807 252.128V255.584C398.807 257.6 398.375 259.04 397.583 259.832ZM395.135 237.908L391.571 242.408H393.839L398.159 237.908H395.135ZM415.047 263H417.675L411.843 253.46L417.315 244.748H414.687L410.655 251.516L406.515 244.748H403.887L409.287 253.604L403.527 263H406.155L410.583 255.692L415.047 263ZM421.164 244.748V263H423.612V244.748H421.164ZM421.092 238.52V241.76H423.684V238.52H421.092ZM429.313 244.748V263H431.761V251.372C431.761 249.896 432.121 248.744 432.913 247.952C433.705 247.16 434.749 246.728 436.045 246.728C437.341 246.728 438.385 247.124 439.105 247.916C439.825 248.708 440.221 249.86 440.221 251.372V263H442.705V251.264C442.705 249.86 443.065 248.744 443.821 247.952C444.577 247.16 445.621 246.728 446.989 246.728C448.285 246.728 449.329 247.124 450.049 247.916C450.769 248.708 451.165 249.86 451.165 251.372V263H453.613V251.012C453.613 248.996 453.073 247.412 451.993 246.26C450.913 245.108 449.401 244.532 447.457 244.532C444.937 244.532 443.101 245.576 441.913 247.592C441.409 246.62 440.725 245.864 439.861 245.324C438.961 244.82 437.881 244.532 436.657 244.532C435.577 244.532 434.641 244.748 433.777 245.18C432.913 245.612 432.229 246.188 431.725 246.98V244.748H429.313ZM460.352 261.452C461.612 262.64 463.304 263.216 465.464 263.216C467.552 263.216 469.208 262.64 470.468 261.416C471.728 260.228 472.376 258.32 472.376 255.728V251.984C472.376 249.392 471.728 247.52 470.468 246.296C469.208 245.108 467.552 244.496 465.464 244.496C463.304 244.496 461.612 245.108 460.352 246.296C459.056 247.52 458.444 249.392 458.444 251.984V255.728C458.444 258.356 459.056 260.264 460.352 261.452ZM468.704 259.832C467.912 260.624 466.832 261.02 465.464 261.02C464.024 261.02 462.908 260.624 462.116 259.832C461.288 259.04 460.892 257.6 460.892 255.584V252.128C460.892 250.148 461.288 248.744 462.116 247.952C462.908 247.16 464.024 246.728 465.464 246.728C466.832 246.728 467.912 247.16 468.704 247.952C469.496 248.744 469.928 250.148 469.928 252.128V255.584C469.928 257.6 469.496 259.04 468.704 259.832ZM477.988 261.776C479.176 262.748 480.76 263.216 482.776 263.216C484.864 263.216 486.52 262.748 487.78 261.812C489.004 260.876 489.652 259.508 489.652 257.78C489.652 256.34 489.22 255.26 488.356 254.504C487.492 253.748 486.196 253.208 484.396 252.848L482.02 252.416C480.904 252.236 480.112 251.912 479.608 251.48C479.104 251.048 478.852 250.4 478.852 249.608C478.852 248.672 479.176 247.916 479.896 247.34C480.616 246.8 481.588 246.512 482.884 246.512C484.18 246.512 485.188 246.8 485.944 247.34C486.664 247.916 487.06 248.672 487.06 249.608V249.716H489.436V249.5C489.436 248.024 488.824 246.836 487.636 245.9C486.412 244.964 484.828 244.496 482.812 244.496C480.94 244.496 479.392 245 478.24 245.936C477.052 246.872 476.476 248.132 476.476 249.716C476.476 251.156 476.872 252.236 477.7 252.956C478.492 253.712 479.788 254.252 481.588 254.54L483.856 254.936C485.044 255.152 485.908 255.476 486.448 255.908C486.988 256.34 487.276 257.024 487.276 257.924C487.276 258.968 486.88 259.76 486.088 260.3C485.296 260.876 484.252 261.128 482.884 261.128C481.552 261.128 480.508 260.84 479.716 260.264C478.924 259.688 478.564 258.86 478.564 257.852V257.744H476.188V257.888C476.188 259.544 476.764 260.84 477.988 261.776ZM247.135 283.748L253.435 302H255.631L261.931 283.748H259.303L254.551 298.4L249.799 283.748H247.135ZM267.023 293.36H278.435V291.2C278.435 288.608 277.787 286.664 276.527 285.404C275.267 284.144 273.611 283.496 271.523 283.496C269.435 283.496 267.743 284.144 266.483 285.404C265.187 286.664 264.575 288.608 264.575 291.2V294.368C264.575 297.068 265.187 299.048 266.483 300.308C267.743 301.604 269.435 302.216 271.595 302.216C273.683 302.216 275.303 301.712 276.491 300.668C277.679 299.66 278.291 298.292 278.291 296.564V296.384H275.915V296.492C275.915 297.608 275.519 298.472 274.799 299.084C274.079 299.732 273.071 300.02 271.775 300.02C270.263 300.02 269.111 299.624 268.283 298.796C267.419 297.968 267.023 296.528 267.023 294.44V293.36ZM268.247 286.952C269.039 286.16 270.155 285.728 271.523 285.728C272.891 285.728 274.007 286.124 274.799 286.88C275.591 287.672 275.987 289.004 275.987 290.876V291.524H267.023V291.128C267.023 289.148 267.419 287.744 268.247 286.952ZM284.049 300.776C285.237 301.748 286.821 302.216 288.837 302.216C290.925 302.216 292.581 301.748 293.841 300.812C295.065 299.876 295.713 298.508 295.713 296.78C295.713 295.34 295.281 294.26 294.417 293.504C293.553 292.748 292.257 292.208 290.457 291.848L288.081 291.416C286.965 291.236 286.173 290.912 285.669 290.48C285.165 290.048 284.913 289.4 284.913 288.608C284.913 287.672 285.237 286.916 285.957 286.34C286.677 285.8 287.649 285.512 288.945 285.512C290.241 285.512 291.249 285.8 292.005 286.34C292.725 286.916 293.121 287.672 293.121 288.608V288.716H295.497V288.5C295.497 287.024 294.885 285.836 293.697 284.9C292.473 283.964 290.889 283.496 288.873 283.496C287.001 283.496 285.453 284 284.301 284.936C283.113 285.872 282.537 287.132 282.537 288.716C282.537 290.156 282.933 291.236 283.761 291.956C284.553 292.712 285.849 293.252 287.649 293.54L289.917 293.936C291.105 294.152 291.969 294.476 292.509 294.908C293.049 295.34 293.337 296.024 293.337 296.924C293.337 297.968 292.941 298.76 292.149 299.3C291.357 299.876 290.313 300.128 288.945 300.128C287.613 300.128 286.569 299.84 285.777 299.264C284.985 298.688 284.625 297.86 284.625 296.852V296.744H282.249V296.888C282.249 298.544 282.825 299.84 284.049 300.776ZM303.738 285.692H307.842V283.748H303.738V278.42L301.254 279.572V283.748H298.41V285.692H301.254V297.464C301.254 298.904 301.614 300.02 302.406 300.812C303.198 301.604 304.278 302 305.682 302H307.518V299.84H306.078C304.494 299.84 303.738 299.012 303.738 297.356V285.692ZM312.408 283.748V302H314.856V283.748H312.408ZM312.336 277.52V280.76H314.928V277.52H312.336ZM323.005 299.588C324.013 301.352 325.633 302.216 327.937 302.216C329.737 302.216 331.213 301.64 332.365 300.416C333.517 299.192 334.093 297.32 334.093 294.728V290.984C334.093 288.428 333.481 286.556 332.329 285.332C331.141 284.108 329.629 283.496 327.757 283.496C326.677 283.496 325.741 283.748 324.949 284.216C324.157 284.72 323.509 285.404 323.005 286.304V277.16H320.557V302H323.005V299.588ZM331.645 294.584C331.645 298.22 330.277 300.02 327.577 300.02C326.065 300.02 324.949 299.516 324.157 298.508C323.365 297.5 323.005 296.168 323.005 294.548V291.344C323.005 289.652 323.365 288.284 324.121 287.276C324.841 286.268 325.957 285.728 327.433 285.728C330.241 285.728 331.645 287.528 331.645 291.128V294.584ZM340.565 300.452C341.681 301.64 343.337 302.216 345.569 302.216C347.801 302.216 349.493 301.64 350.609 300.452C351.725 299.264 352.301 297.536 352.301 295.304V283.748H349.853V294.98C349.853 296.708 349.529 298.004 348.881 298.796C348.233 299.624 347.117 300.02 345.605 300.02C344.057 300.02 342.977 299.624 342.329 298.76C341.681 297.932 341.357 296.672 341.357 294.98V283.748H338.909V295.304C338.909 297.536 339.449 299.264 340.565 300.452ZM358.87 300.776C359.626 301.604 360.742 302 362.218 302H363.946V299.768H362.47C361.642 299.768 361.066 299.552 360.706 299.12C360.346 298.688 360.166 298.004 360.166 297.068V277.16H357.718V297.212C357.718 298.796 358.078 299.984 358.87 300.776ZM378.325 285.044C377.173 284.036 375.553 283.496 373.429 283.496C371.449 283.496 369.901 283.964 368.785 284.9C367.633 285.836 367.093 287.096 367.093 288.644V288.824H369.469V288.716C369.469 287.744 369.793 286.988 370.513 286.412C371.233 285.836 372.205 285.548 373.465 285.548C374.761 285.548 375.805 285.908 376.525 286.556C377.245 287.24 377.605 288.248 377.605 289.544V291.632H372.673C370.729 291.632 369.217 292.1 368.137 293.036C367.057 293.972 366.553 295.232 366.553 296.852C366.553 298.616 367.057 299.948 368.137 300.848C369.181 301.784 370.657 302.216 372.601 302.216C373.753 302.216 374.761 302.072 375.589 301.712C376.381 301.352 377.065 300.812 377.641 300.056V302H380.053V289.58C380.053 287.6 379.477 286.088 378.325 285.044ZM376.489 299.156C375.769 299.876 374.581 300.236 372.997 300.236C370.333 300.236 369.001 299.12 369.001 296.816C369.001 294.584 370.333 293.432 373.033 293.432H377.605V295.808C377.605 297.32 377.209 298.436 376.489 299.156ZM385.456 283.748V302H387.904V290.372C387.904 288.896 388.264 287.744 389.056 286.952C389.848 286.16 390.892 285.728 392.188 285.728C393.484 285.728 394.528 286.124 395.284 286.916C396.004 287.708 396.4 288.86 396.4 290.372V302H398.848V290.012C398.848 287.996 398.308 286.412 397.264 285.26C396.22 284.108 394.744 283.532 392.8 283.532C391.72 283.532 390.784 283.748 389.92 284.144C389.056 284.576 388.372 285.188 387.868 285.98V283.748H385.456ZM405.416 300.416C406.568 301.64 408.044 302.216 409.844 302.216C410.996 302.216 411.968 302 412.796 301.568C413.624 301.136 414.272 300.452 414.776 299.588V302H417.26V277.16H414.776V286.304C413.696 284.432 412.076 283.496 409.88 283.496C408.044 283.496 406.568 284.108 405.416 285.332C404.264 286.556 403.688 288.428 403.688 290.984V294.728C403.688 297.32 404.264 299.192 405.416 300.416ZM413.624 298.508C412.832 299.516 411.716 300.02 410.204 300.02C407.504 300.02 406.172 298.22 406.172 294.584V291.128C406.172 287.528 407.54 285.728 410.348 285.728C411.788 285.728 412.904 286.268 413.66 287.276C414.38 288.284 414.776 289.652 414.776 291.344V294.548C414.776 296.204 414.38 297.5 413.624 298.508ZM423.983 300.452C425.243 301.64 426.935 302.216 429.095 302.216C431.183 302.216 432.839 301.64 434.099 300.416C435.359 299.228 436.007 297.32 436.007 294.728V290.984C436.007 288.392 435.359 286.52 434.099 285.296C432.839 284.108 431.183 283.496 429.095 283.496C426.935 283.496 425.243 284.108 423.983 285.296C422.687 286.52 422.075 288.392 422.075 290.984V294.728C422.075 297.356 422.687 299.264 423.983 300.452ZM432.335 298.832C431.543 299.624 430.463 300.02 429.095 300.02C427.655 300.02 426.539 299.624 425.747 298.832C424.919 298.04 424.523 296.6 424.523 294.584V291.128C424.523 289.148 424.919 287.744 425.747 286.952C426.539 286.16 427.655 285.728 429.095 285.728C430.463 285.728 431.543 286.16 432.335 286.952C433.127 287.744 433.559 289.148 433.559 291.128V294.584C433.559 296.6 433.127 298.04 432.335 298.832ZM441.619 300.776C442.807 301.748 444.391 302.216 446.407 302.216C448.495 302.216 450.151 301.748 451.411 300.812C452.635 299.876 453.283 298.508 453.283 296.78C453.283 295.34 452.851 294.26 451.987 293.504C451.123 292.748 449.827 292.208 448.027 291.848L445.651 291.416C444.535 291.236 443.743 290.912 443.239 290.48C442.735 290.048 442.483 289.4 442.483 288.608C442.483 287.672 442.807 286.916 443.527 286.34C444.247 285.8 445.219 285.512 446.515 285.512C447.811 285.512 448.819 285.8 449.575 286.34C450.295 286.916 450.691 287.672 450.691 288.608V288.716H453.067V288.5C453.067 287.024 452.455 285.836 451.267 284.9C450.043 283.964 448.459 283.496 446.443 283.496C444.571 283.496 443.023 284 441.871 284.936C440.683 285.872 440.107 287.132 440.107 288.716C440.107 290.156 440.503 291.236 441.331 291.956C442.123 292.712 443.419 293.252 445.219 293.54L447.487 293.936C448.675 294.152 449.539 294.476 450.079 294.908C450.619 295.34 450.907 296.024 450.907 296.924C450.907 297.968 450.511 298.76 449.719 299.3C448.927 299.876 447.883 300.128 446.515 300.128C445.183 300.128 444.139 299.84 443.347 299.264C442.555 298.688 442.195 297.86 442.195 296.852V296.744H439.819V296.888C439.819 298.544 440.395 299.84 441.619 300.776ZM457.564 277.16L458.068 294.944H460.084L460.588 277.16H457.564ZM457.456 298.652V302H460.66V298.652H457.456Z" fill="white"/>
<path d="M89.5722 28.3365H89.8809C91.0404 25.8549 93.1246 21.4047 95.4862 19.9065C96.6149 19.1927 99.954 20.5771 100.253 21.8952C100.851 24.5305 97.6938 28.2816 96.9723 30.803C98.2487 30.0084 99.507 28.6658 100.981 28.2725C105.516 27.064 105.852 31.7719 105.914 34.8114H106.223C106.743 33.0018 108.245 28.969 109.956 28.0383C112.028 26.9111 114.594 29.7172 114.294 31.7283C113.881 34.5026 111.778 37.5044 110.635 40.0529C108.072 45.7508 105.763 51.6629 101.977 56.7026C100.213 59.0522 96.2047 64.6771 93.282 59.7202C92.5081 58.4112 93.1707 56.5193 93.4422 55.1609C94.0312 52.2132 94.7897 49.2403 94.8141 46.2195C91.2284 48.3861 88.9067 53.819 84.6394 54.9476C82.5335 55.504 78.0939 53.1355 77.9548 50.8442C77.7668 47.7275 78.8245 44.3521 79.2653 41.2862C80.135 35.2339 80.9395 29.2269 80.9395 23.0949C78.9137 24.1219 77.6867 26.5563 76.3546 28.3365C73.6722 31.9124 70.7369 35.2658 68.0267 38.8197C66.6796 40.5863 64.4965 44.1165 62.1317 44.5109C60.3895 44.8014 56.7266 42.3147 57.4945 40.3603C58.663 37.3804 62.2919 34.5242 64.3148 32.0363C68.6465 26.7052 72.6701 21.7826 77.5356 16.9164C78.9017 15.551 79.9129 13.5769 81.5592 12.5323C83.9333 11.0298 88.5214 12.9688 89.9611 15.1072C92.135 18.3352 89.3845 24.6838 89.5729 28.3365H89.5722ZM39.0083 39.1281C42.3504 36.7712 45.0021 31.4653 49.183 30.401C51.2797 29.8676 55.4728 32.3082 55.6392 34.5044C55.8614 37.4324 54.9269 40.567 54.5172 43.4444C53.6043 49.8384 52.8829 56.077 52.8829 62.5606C56.259 59.6071 58.7409 55.2132 61.6425 51.7694C64.408 48.4862 66.9086 43.3058 70.7658 41.1992C72.3876 40.3146 76.43 42.3937 76.3927 44.3741C76.3466 46.8019 71.6355 50.5193 70.1863 52.3859C65.9314 57.8576 61.8119 62.9323 56.8912 67.8037C55.3557 69.322 54.0269 71.6269 52.2386 72.8151C49.8119 74.4268 45.2703 72.4442 43.8181 70.2568C41.6969 67.0577 44.2191 60.5891 44.2499 57.011C42.3167 59.3009 40.7904 64.2794 38.0277 65.6184C36.8128 66.2067 33.2673 64.6339 33.2981 63.1639C33.3533 60.4928 35.7708 56.9682 36.8498 54.5444C35.5148 55.3131 34.3246 56.6335 32.8418 57.0977C28.528 58.4477 27.9082 54.1229 27.9082 51.1526C26.1416 52.6679 25.7472 56.5914 23.5612 57.4401C20.4255 58.6562 19.0133 54.2364 19.963 52.0775C23.4192 44.2424 26.4748 35.4761 31.738 28.6449C33.3781 26.5165 38.2898 20.3404 40.6733 25.9348C41.2005 27.1754 40.5529 28.9391 40.3034 30.1867C39.696 33.2167 39.0083 36.018 39.0083 39.1281V39.1281ZM46.7165 48.6861C48.1565 47.8051 48.7667 46.064 49.6579 44.6778C51.4956 41.8237 54.1997 39.1871 54.8314 35.7367C55.2142 33.6403 51.6405 30.8167 49.5624 31.3633C48.2548 31.7071 48.1594 34.3596 47.9128 35.4283C46.963 39.5668 46.2694 44.4513 46.7165 48.6861V48.6861ZM86.4906 36.6615C84.0888 40.585 79.6704 45.0104 78.9273 49.611C78.5944 51.6751 82.1124 54.6699 84.2121 54.0092C85.4824 53.609 85.5998 50.9887 85.8123 49.9194C86.682 45.5708 87.1075 41.0957 87.1075 36.6615H86.4906V36.6615ZM83.4058 74.8935C86.1006 72.7778 86.8005 68.3781 89.671 66.4636C90.8951 65.6477 94.2928 67.282 94.4468 68.7406C94.7183 71.3492 92.045 74.9455 91.1139 77.3601C93.2816 76.1261 98.1408 72.5503 99.8212 76.7759C100.259 77.8727 99.9723 79.5603 100.055 80.752C101.72 79.2351 102.263 75.2685 104.403 74.4677C107.19 73.4265 109.062 77.4 108.133 79.5186C104.73 87.3019 101.652 96.1902 96.4202 102.952C94.8014 105.042 89.6772 111.862 87.2907 106.002C86.754 104.68 87.3957 103.035 87.6419 101.718C88.1999 98.7435 88.9463 95.8215 88.9554 92.7765C85.5976 95.1432 82.9492 100.434 78.7806 101.555C76.6685 102.123 72.2995 99.6761 72.1546 97.4013C71.9637 94.3683 73.0612 91.1386 73.4494 88.1517C74.2543 81.9659 75.0807 75.9234 75.0807 69.652C71.3099 72.3304 68.5349 77.5223 65.5225 81.0604C63.0126 84.0121 60.5769 89.302 56.8894 90.9169C55.2613 91.6295 51.0094 89.1941 51.586 87.2225C52.3539 84.5825 55.8749 81.9838 57.5429 79.8268C63.0467 72.7109 68.6058 65.7165 75.17 59.5478C77.5286 57.3315 83.3622 59.3796 84.4539 62.257C85.647 65.414 84.3427 71.7542 83.4053 74.8935L83.4058 74.8935ZM33.1479 85.9936C34.8101 84.3307 36.3086 82.4693 38.0812 80.9305C41.3713 78.078 43.1256 75.9721 47.331 78.2181C48.3053 78.7387 49.397 79.3054 49.6991 80.456C50.4946 83.4714 49.0425 87.3176 48.6539 90.3099C47.8366 96.5982 47.023 102.743 47.023 109.118C49.0977 107.526 50.4514 105.016 52.0271 102.952C54.512 99.6966 57.25 96.671 59.7042 93.3933C61.0487 91.5955 63.3857 87.7134 65.8308 87.4263C67.5112 87.2291 71.1093 89.6513 70.4555 91.5432C69.5062 94.3014 65.9263 96.9746 64.104 99.2514C59.6489 104.821 55.5203 109.986 50.4174 114.989C49.0362 116.342 48.0371 118.356 46.4032 119.416C43.9425 121.007 39.4227 119.018 37.9578 116.814C35.8644 113.66 38.3807 107.127 38.3895 103.568C36.4933 105.875 34.9981 110.876 32.1952 112.177C30.8756 112.787 27.6535 111.255 27.6444 109.721C27.6272 106.944 30.0001 103.671 30.9898 101.101C28.7668 102.566 24.0371 105.995 22.2795 101.689C21.8138 100.554 22.0761 98.925 22.0483 97.71C20.4419 99.2942 19.9363 102.79 18.0002 103.867C15.4593 105.279 12.9927 101.412 13.8345 99.2514C16.9055 91.3397 20.6178 82.3248 25.7083 75.5104C27.3114 73.3676 32.368 66.7526 34.8133 72.4917C35.3434 73.7404 34.6805 75.483 34.4584 76.7437C33.9096 79.868 33.1479 82.7956 33.1479 85.9936V85.9936ZM40.8561 95.2435C42.3517 94.4016 42.9437 92.6382 43.847 91.2352C45.6938 88.369 48.509 85.8052 49.033 82.2936C49.3476 80.2025 45.805 77.3524 43.7174 77.9203C42.4626 78.2617 42.3638 80.9546 42.1263 81.9853C41.1243 86.3389 40.8561 90.7896 40.8561 95.2435ZM80.6303 83.2186C78.5863 86.9042 72.1915 92.9126 73.0487 97.3885C73.3634 99.0363 78.0961 101.762 79.1504 99.8214C81.5402 95.4176 81.2471 88.0881 81.2471 83.2186H80.6303Z" fill="white"/>
<path d="M89.5722 -66.6635H89.8809C91.0404 -69.1451 93.1246 -73.5953 95.4862 -75.0935C96.6149 -75.8073 99.954 -74.4229 100.253 -73.1048C100.851 -70.4695 97.6938 -66.7184 96.9723 -64.197C98.2487 -64.9916 99.507 -66.3342 100.981 -66.7275C105.516 -67.936 105.852 -63.2281 105.914 -60.1886H106.223C106.743 -61.9982 108.245 -66.031 109.956 -66.9617C112.028 -68.0889 114.594 -65.2828 114.294 -63.2717C113.881 -60.4974 111.778 -57.4956 110.635 -54.9471C108.072 -49.2492 105.763 -43.3371 101.977 -38.2974C100.213 -35.9478 96.2047 -30.3229 93.282 -35.2798C92.5081 -36.5888 93.1707 -38.4807 93.4422 -39.8391C94.0312 -42.7868 94.7897 -45.7597 94.8141 -48.7805C91.2284 -46.6139 88.9067 -41.181 84.6394 -40.0524C82.5335 -39.496 78.0939 -41.8645 77.9548 -44.1558C77.7668 -47.2725 78.8245 -50.6479 79.2653 -53.7138C80.135 -59.7661 80.9395 -65.7731 80.9395 -71.9051C78.9137 -70.8781 77.6867 -68.4437 76.3546 -66.6635C73.6722 -63.0876 70.7369 -59.7342 68.0267 -56.1803C66.6796 -54.4137 64.4965 -50.8835 62.1317 -50.4891C60.3895 -50.1986 56.7266 -52.6853 57.4945 -54.6397C58.663 -57.6196 62.2919 -60.4758 64.3148 -62.9637C68.6465 -68.2948 72.6701 -73.2174 77.5356 -78.0836C78.9017 -79.449 79.9129 -81.4231 81.5592 -82.4677C83.9333 -83.9702 88.5214 -82.0312 89.9611 -79.8928C92.135 -76.6648 89.3845 -70.3162 89.5729 -66.6635H89.5722ZM39.0083 -55.8719C42.3504 -58.2288 45.0021 -63.5347 49.183 -64.599C51.2797 -65.1324 55.4728 -62.6918 55.6392 -60.4956C55.8614 -57.5676 54.9269 -54.433 54.5172 -51.5556C53.6043 -45.1616 52.8829 -38.923 52.8829 -32.4394C56.259 -35.3929 58.7409 -39.7868 61.6425 -43.2306C64.408 -46.5138 66.9086 -51.6942 70.7658 -53.8008C72.3876 -54.6854 76.43 -52.6063 76.3927 -50.6259C76.3466 -48.1981 71.6355 -44.4807 70.1863 -42.6141C65.9314 -37.1424 61.8119 -32.0677 56.8912 -27.1963C55.3557 -25.678 54.0269 -23.3731 52.2386 -22.1849C49.8119 -20.5732 45.2703 -22.5558 43.8181 -24.7432C41.6969 -27.9423 44.2191 -34.4109 44.2499 -37.989C42.3167 -35.6991 40.7904 -30.7206 38.0277 -29.3816C36.8128 -28.7933 33.2673 -30.3661 33.2981 -31.8361C33.3533 -34.5072 35.7708 -38.0318 36.8498 -40.4556C35.5148 -39.6869 34.3246 -38.3665 32.8418 -37.9023C28.528 -36.5523 27.9082 -40.8771 27.9082 -43.8474C26.1416 -42.3321 25.7472 -38.4086 23.5612 -37.5599C20.4255 -36.3438 19.0133 -40.7636 19.963 -42.9225C23.4192 -50.7576 26.4748 -59.5239 31.738 -66.3551C33.3781 -68.4835 38.2898 -74.6596 40.6733 -69.0652C41.2005 -67.8246 40.5529 -66.0609 40.3034 -64.8133C39.696 -61.7833 39.0083 -58.982 39.0083 -55.8719V-55.8719ZM46.7165 -46.3139C48.1565 -47.1949 48.7667 -48.936 49.6579 -50.3222C51.4956 -53.1763 54.1997 -55.8129 54.8314 -59.2633C55.2142 -61.3597 51.6405 -64.1833 49.5624 -63.6367C48.2548 -63.2929 48.1594 -60.6404 47.9128 -59.5717C46.963 -55.4332 46.2694 -50.5487 46.7165 -46.3139V-46.3139ZM86.4906 -58.3385C84.0888 -54.415 79.6704 -49.9896 78.9273 -45.389C78.5944 -43.3249 82.1124 -40.3301 84.2121 -40.9908C85.4824 -41.391 85.5998 -44.0113 85.8123 -45.0806C86.682 -49.4292 87.1075 -53.9043 87.1075 -58.3385H86.4906V-58.3385ZM83.4058 -20.1065C86.1006 -22.2222 86.8005 -26.6219 89.671 -28.5364C90.8951 -29.3523 94.2928 -27.718 94.4468 -26.2594C94.7183 -23.6508 92.045 -20.0545 91.1139 -17.6399C93.2816 -18.8739 98.1408 -22.4497 99.8212 -18.2241C100.259 -17.1273 99.9723 -15.4397 100.055 -14.248C101.72 -15.7649 102.263 -19.7315 104.403 -20.5323C107.19 -21.5735 109.062 -17.6 108.133 -15.4814C104.73 -7.69815 101.652 1.19025 96.4202 7.9516C94.8014 10.0421 89.6772 16.8619 87.2907 11.0025C86.754 9.67951 87.3957 8.03502 87.6419 6.71828C88.1999 3.74355 88.9463 0.821485 88.9554 -2.2235C85.5976 0.143203 82.9492 5.43379 78.7806 6.55516C76.6685 7.12298 72.2995 4.67612 72.1546 2.40127C71.9637 -0.631681 73.0612 -3.86142 73.4494 -6.84827C74.2543 -13.0341 75.0807 -19.0766 75.0807 -25.348C71.3099 -22.6696 68.5349 -17.4777 65.5225 -13.9396C63.0126 -10.9879 60.5769 -5.69803 56.8894 -4.08311C55.2613 -3.3705 51.0094 -5.80595 51.586 -7.77751C52.3539 -10.4175 55.8749 -13.0162 57.5429 -15.1732C63.0467 -22.2891 68.6058 -29.2835 75.17 -35.4522C77.5286 -37.6685 83.3622 -35.6204 84.4539 -32.743C85.647 -29.586 84.3427 -23.2458 83.4053 -20.1065L83.4058 -20.1065ZM33.1479 -9.00643C34.8101 -10.6693 36.3086 -12.5307 38.0812 -14.0695C41.3713 -16.922 43.1256 -19.0279 47.331 -16.7819C48.3053 -16.2613 49.397 -15.6946 49.6991 -14.544C50.4946 -11.5286 49.0425 -7.6824 48.6539 -4.69012C47.8366 1.59822 47.023 7.74341 47.023 14.118C49.0977 12.5259 50.4514 10.0162 52.0271 7.9516C54.512 4.69659 57.25 1.67101 59.7042 -1.60667C61.0487 -3.40447 63.3857 -7.28659 65.8308 -7.57371C67.5112 -7.77091 71.1093 -5.34866 70.4555 -3.45681C69.5062 -0.698589 65.9263 1.97463 64.104 4.25141C59.6489 9.82078 55.5203 14.9856 50.4174 19.9886C49.0362 21.3422 48.0371 23.3556 46.4032 24.4161C43.9425 26.0073 39.4227 24.0185 37.9578 21.8138C35.8644 18.6598 38.3807 12.1267 38.3895 8.56807C36.4933 10.8752 34.9981 15.876 32.1952 17.1766C30.8756 17.7872 27.6535 16.2547 27.6444 14.721C27.6272 11.9442 30.0001 8.67054 30.9898 6.10145C28.7668 7.56639 24.0371 10.9952 22.2795 6.6894C21.8138 5.55383 22.0761 3.92504 22.0483 2.71C20.4419 4.29418 19.9363 7.7903 18.0002 8.86661C15.4593 10.2788 12.9927 6.41247 13.8345 4.25141C16.9055 -3.66026 20.6178 -12.6752 25.7083 -19.4896C27.3114 -21.6324 32.368 -28.2474 34.8133 -22.5083C35.3434 -21.2596 34.6805 -19.517 34.4584 -18.2563C33.9096 -15.132 33.1479 -12.2044 33.1479 -9.00643V-9.00643ZM40.8561 0.243467C42.3517 -0.598407 42.9437 -2.36179 43.847 -3.76482C45.6938 -6.63096 48.509 -9.19484 49.033 -12.7064C49.3476 -14.7975 45.805 -17.6476 43.7174 -17.0797C42.4626 -16.7383 42.3638 -14.0454 42.1263 -13.0147C41.1243 -8.66108 40.8561 -4.21043 40.8561 0.243467ZM80.6303 -11.7814C78.5863 -8.0958 72.1915 -2.08739 73.0487 2.38846C73.3634 4.03628 78.0961 6.76185 79.1504 4.82137C81.5402 0.4176 81.2471 -6.91193 81.2471 -11.7814H80.6303Z" fill="white"/>
<path d="M89.5722 124.337H89.8809C91.0404 121.855 93.1246 117.405 95.4862 115.907C96.6149 115.193 99.954 116.577 100.253 117.895C100.851 120.531 97.6938 124.282 96.9723 126.803C98.2487 126.008 99.507 124.666 100.981 124.272C105.516 123.064 105.852 127.772 105.914 130.811H106.223C106.743 129.002 108.245 124.969 109.956 124.038C112.028 122.911 114.594 125.717 114.294 127.728C113.881 130.503 111.778 133.504 110.635 136.053C108.072 141.751 105.763 147.663 101.977 152.703C100.213 155.052 96.2047 160.677 93.282 155.72C92.5081 154.411 93.1707 152.519 93.4422 151.161C94.0312 148.213 94.7897 145.24 94.8141 142.219C91.2284 144.386 88.9067 149.819 84.6394 150.948C82.5335 151.504 78.0939 149.136 77.9548 146.844C77.7668 143.728 78.8245 140.352 79.2653 137.286C80.135 131.234 80.9395 125.227 80.9395 119.095C78.9137 120.122 77.6867 122.556 76.3546 124.337C73.6722 127.912 70.7369 131.266 68.0267 134.82C66.6796 136.586 64.4965 140.117 62.1317 140.511C60.3895 140.801 56.7266 138.315 57.4945 136.36C58.663 133.38 62.2919 130.524 64.3148 128.036C68.6465 122.705 72.6701 117.783 77.5356 112.916C78.9017 111.551 79.9129 109.577 81.5592 108.532C83.9333 107.03 88.5214 108.969 89.9611 111.107C92.135 114.335 89.3845 120.684 89.5729 124.337H89.5722ZM39.0083 135.128C42.3504 132.771 45.0021 127.465 49.183 126.401C51.2797 125.868 55.4728 128.308 55.6392 130.504C55.8614 133.432 54.9269 136.567 54.5172 139.444C53.6043 145.838 52.8829 152.077 52.8829 158.561C56.259 155.607 58.7409 151.213 61.6425 147.769C64.408 144.486 66.9086 139.306 70.7658 137.199C72.3876 136.315 76.43 138.394 76.3927 140.374C76.3466 142.802 71.6355 146.519 70.1863 148.386C65.9314 153.858 61.8119 158.932 56.8912 163.804C55.3557 165.322 54.0269 167.627 52.2386 168.815C49.8119 170.427 45.2703 168.444 43.8181 166.257C41.6969 163.058 44.2191 156.589 44.2499 153.011C42.3167 155.301 40.7904 160.279 38.0277 161.618C36.8128 162.207 33.2673 160.634 33.2981 159.164C33.3533 156.493 35.7708 152.968 36.8498 150.544C35.5148 151.313 34.3246 152.633 32.8418 153.098C28.528 154.448 27.9082 150.123 27.9082 147.153C26.1416 148.668 25.7472 152.591 23.5612 153.44C20.4255 154.656 19.0133 150.236 19.963 148.077C23.4192 140.242 26.4748 131.476 31.738 124.645C33.3781 122.516 38.2898 116.34 40.6733 121.935C41.2005 123.175 40.5529 124.939 40.3034 126.187C39.696 129.217 39.0083 132.018 39.0083 135.128V135.128ZM46.7165 144.686C48.1565 143.805 48.7667 142.064 49.6579 140.678C51.4956 137.824 54.1997 135.187 54.8314 131.737C55.2142 129.64 51.6405 126.817 49.5624 127.363C48.2548 127.707 48.1594 130.36 47.9128 131.428C46.963 135.567 46.2694 140.451 46.7165 144.686V144.686ZM86.4906 132.662C84.0888 136.585 79.6704 141.01 78.9273 145.611C78.5944 147.675 82.1124 150.67 84.2121 150.009C85.4824 149.609 85.5998 146.989 85.8123 145.919C86.682 141.571 87.1075 137.096 87.1075 132.662H86.4906V132.662ZM83.4058 170.894C86.1006 168.778 86.8005 164.378 89.671 162.464C90.8951 161.648 94.2928 163.282 94.4468 164.741C94.7183 167.349 92.045 170.946 91.1139 173.36C93.2816 172.126 98.1408 168.55 99.8212 172.776C100.259 173.873 99.9723 175.56 100.055 176.752C101.72 175.235 102.263 171.269 104.403 170.468C107.19 169.426 109.062 173.4 108.133 175.519C104.73 183.302 101.652 192.19 96.4202 198.952C94.8014 201.042 89.6772 207.862 87.2907 202.002C86.754 200.68 87.3957 199.035 87.6419 197.718C88.1999 194.744 88.9463 191.821 88.9554 188.776C85.5976 191.143 82.9492 196.434 78.7806 197.555C76.6685 198.123 72.2995 195.676 72.1546 193.401C71.9637 190.368 73.0612 187.139 73.4494 184.152C74.2543 177.966 75.0807 171.923 75.0807 165.652C71.3099 168.33 68.5349 173.522 65.5225 177.06C63.0126 180.012 60.5769 185.302 56.8894 186.917C55.2613 187.63 51.0094 185.194 51.586 183.222C52.3539 180.582 55.8749 177.984 57.5429 175.827C63.0467 168.711 68.6058 161.717 75.17 155.548C77.5286 153.332 83.3622 155.38 84.4539 158.257C85.647 161.414 84.3427 167.754 83.4053 170.894L83.4058 170.894ZM33.1479 181.994C34.8101 180.331 36.3086 178.469 38.0812 176.93C41.3713 174.078 43.1256 171.972 47.331 174.218C48.3053 174.739 49.397 175.305 49.6991 176.456C50.4946 179.471 49.0425 183.318 48.6539 186.31C47.8366 192.598 47.023 198.743 47.023 205.118C49.0977 203.526 50.4514 201.016 52.0271 198.952C54.512 195.697 57.25 192.671 59.7042 189.393C61.0487 187.596 63.3857 183.713 65.8308 183.426C67.5112 183.229 71.1093 185.651 70.4555 187.543C69.5062 190.301 65.9263 192.975 64.104 195.251C59.6489 200.821 55.5203 205.986 50.4174 210.989C49.0362 212.342 48.0371 214.356 46.4032 215.416C43.9425 217.007 39.4227 215.018 37.9578 212.814C35.8644 209.66 38.3807 203.127 38.3895 199.568C36.4933 201.875 34.9981 206.876 32.1952 208.177C30.8756 208.787 27.6535 207.255 27.6444 205.721C27.6272 202.944 30.0001 199.671 30.9898 197.101C28.7668 198.566 24.0371 201.995 22.2795 197.689C21.8138 196.554 22.0761 194.925 22.0483 193.71C20.4419 195.294 19.9363 198.79 18.0002 199.867C15.4593 201.279 12.9927 197.412 13.8345 195.251C16.9055 187.34 20.6178 178.325 25.7083 171.51C27.3114 169.368 32.368 162.753 34.8133 168.492C35.3434 169.74 34.6805 171.483 34.4584 172.744C33.9096 175.868 33.1479 178.796 33.1479 181.994V181.994ZM40.8561 191.243C42.3517 190.402 42.9437 188.638 43.847 187.235C45.6938 184.369 48.509 181.805 49.033 178.294C49.3476 176.202 45.805 173.352 43.7174 173.92C42.4626 174.262 42.3638 176.955 42.1263 177.985C41.1243 182.339 40.8561 186.79 40.8561 191.243ZM80.6303 179.219C78.5863 182.904 72.1915 188.913 73.0487 193.388C73.3634 195.036 78.0961 197.762 79.1504 195.821C81.5402 191.418 81.2471 184.088 81.2471 179.219H80.6303Z" fill="white"/>
<path d="M89.5722 219.337H89.8809C91.0404 216.855 93.1246 212.405 95.4862 210.907C96.6149 210.193 99.954 211.577 100.253 212.895C100.851 215.531 97.6938 219.282 96.9723 221.803C98.2487 221.008 99.507 219.666 100.981 219.272C105.516 218.064 105.852 222.772 105.914 225.811H106.223C106.743 224.002 108.245 219.969 109.956 219.038C112.028 217.911 114.594 220.717 114.294 222.728C113.881 225.503 111.778 228.504 110.635 231.053C108.072 236.751 105.763 242.663 101.977 247.703C100.213 250.052 96.2047 255.677 93.282 250.72C92.5081 249.411 93.1707 247.519 93.4422 246.161C94.0312 243.213 94.7897 240.24 94.8141 237.219C91.2284 239.386 88.9067 244.819 84.6394 245.948C82.5335 246.504 78.0939 244.136 77.9548 241.844C77.7668 238.728 78.8245 235.352 79.2653 232.286C80.135 226.234 80.9395 220.227 80.9395 214.095C78.9137 215.122 77.6867 217.556 76.3546 219.337C73.6722 222.912 70.7369 226.266 68.0267 229.82C66.6796 231.586 64.4965 235.117 62.1317 235.511C60.3895 235.801 56.7266 233.315 57.4945 231.36C58.663 228.38 62.2919 225.524 64.3148 223.036C68.6465 217.705 72.6701 212.783 77.5356 207.916C78.9017 206.551 79.9129 204.577 81.5592 203.532C83.9333 202.03 88.5214 203.969 89.9611 206.107C92.135 209.335 89.3845 215.684 89.5729 219.337H89.5722ZM39.0083 230.128C42.3504 227.771 45.0021 222.465 49.183 221.401C51.2797 220.868 55.4728 223.308 55.6392 225.504C55.8614 228.432 54.9269 231.567 54.5172 234.444C53.6043 240.838 52.8829 247.077 52.8829 253.561C56.259 250.607 58.7409 246.213 61.6425 242.769C64.408 239.486 66.9086 234.306 70.7658 232.199C72.3876 231.315 76.43 233.394 76.3927 235.374C76.3466 237.802 71.6355 241.519 70.1863 243.386C65.9314 248.858 61.8119 253.932 56.8912 258.804C55.3557 260.322 54.0269 262.627 52.2386 263.815C49.8119 265.427 45.2703 263.444 43.8181 261.257C41.6969 258.058 44.2191 251.589 44.2499 248.011C42.3167 250.301 40.7904 255.279 38.0277 256.618C36.8128 257.207 33.2673 255.634 33.2981 254.164C33.3533 251.493 35.7708 247.968 36.8498 245.544C35.5148 246.313 34.3246 247.633 32.8418 248.098C28.528 249.448 27.9082 245.123 27.9082 242.153C26.1416 243.668 25.7472 247.591 23.5612 248.44C20.4255 249.656 19.0133 245.236 19.963 243.077C23.4192 235.242 26.4748 226.476 31.738 219.645C33.3781 217.516 38.2898 211.34 40.6733 216.935C41.2005 218.175 40.5529 219.939 40.3034 221.187C39.696 224.217 39.0083 227.018 39.0083 230.128V230.128ZM46.7165 239.686C48.1565 238.805 48.7667 237.064 49.6579 235.678C51.4956 232.824 54.1997 230.187 54.8314 226.737C55.2142 224.64 51.6405 221.817 49.5624 222.363C48.2548 222.707 48.1594 225.36 47.9128 226.428C46.963 230.567 46.2694 235.451 46.7165 239.686V239.686ZM86.4906 227.662C84.0888 231.585 79.6704 236.01 78.9273 240.611C78.5944 242.675 82.1124 245.67 84.2121 245.009C85.4824 244.609 85.5998 241.989 85.8123 240.919C86.682 236.571 87.1075 232.096 87.1075 227.662H86.4906V227.662ZM83.4058 265.894C86.1006 263.778 86.8005 259.378 89.671 257.464C90.8951 256.648 94.2928 258.282 94.4468 259.741C94.7183 262.349 92.045 265.946 91.1139 268.36C93.2816 267.126 98.1408 263.55 99.8212 267.776C100.259 268.873 99.9723 270.56 100.055 271.752C101.72 270.235 102.263 266.269 104.403 265.468C107.19 264.426 109.062 268.4 108.133 270.519C104.73 278.302 101.652 287.19 96.4202 293.952C94.8014 296.042 89.6772 302.862 87.2907 297.002C86.754 295.68 87.3957 294.035 87.6419 292.718C88.1999 289.744 88.9463 286.821 88.9554 283.776C85.5976 286.143 82.9492 291.434 78.7806 292.555C76.6685 293.123 72.2995 290.676 72.1546 288.401C71.9637 285.368 73.0612 282.139 73.4494 279.152C74.2543 272.966 75.0807 266.923 75.0807 260.652C71.3099 263.33 68.5349 268.522 65.5225 272.06C63.0126 275.012 60.5769 280.302 56.8894 281.917C55.2613 282.63 51.0094 280.194 51.586 278.222C52.3539 275.582 55.8749 272.984 57.5429 270.827C63.0467 263.711 68.6058 256.717 75.17 250.548C77.5286 248.332 83.3622 250.38 84.4539 253.257C85.647 256.414 84.3427 262.754 83.4053 265.894L83.4058 265.894ZM33.1479 276.994C34.8101 275.331 36.3086 273.469 38.0812 271.93C41.3713 269.078 43.1256 266.972 47.331 269.218C48.3053 269.739 49.397 270.305 49.6991 271.456C50.4946 274.471 49.0425 278.318 48.6539 281.31C47.8366 287.598 47.023 293.743 47.023 300.118C49.0977 298.526 50.4514 296.016 52.0271 293.952C54.512 290.697 57.25 287.671 59.7042 284.393C61.0487 282.596 63.3857 278.713 65.8308 278.426C67.5112 278.229 71.1093 280.651 70.4555 282.543C69.5062 285.301 65.9263 287.975 64.104 290.251C59.6489 295.821 55.5203 300.986 50.4174 305.989C49.0362 307.342 48.0371 309.356 46.4032 310.416C43.9425 312.007 39.4227 310.018 37.9578 307.814C35.8644 304.66 38.3807 298.127 38.3895 294.568C36.4933 296.875 34.9981 301.876 32.1952 303.177C30.8756 303.787 27.6535 302.255 27.6444 300.721C27.6272 297.944 30.0001 294.671 30.9898 292.101C28.7668 293.566 24.0371 296.995 22.2795 292.689C21.8138 291.554 22.0761 289.925 22.0483 288.71C20.4419 290.294 19.9363 293.79 18.0002 294.867C15.4593 296.279 12.9927 292.412 13.8345 290.251C16.9055 282.34 20.6178 273.325 25.7083 266.51C27.3114 264.368 32.368 257.753 34.8133 263.492C35.3434 264.74 34.6805 266.483 34.4584 267.744C33.9096 270.868 33.1479 273.796 33.1479 276.994V276.994ZM40.8561 286.243C42.3517 285.402 42.9437 283.638 43.847 282.235C45.6938 279.369 48.509 276.805 49.033 273.294C49.3476 271.202 45.805 268.352 43.7174 268.92C42.4626 269.262 42.3638 271.955 42.1263 272.985C41.1243 277.339 40.8561 281.79 40.8561 286.243ZM80.6303 274.219C78.5863 277.904 72.1915 283.913 73.0487 288.388C73.3634 290.036 78.0961 292.762 79.1504 290.821C81.5402 286.418 81.2471 279.088 81.2471 274.219H80.6303Z" fill="white"/>
<g clip-path="url(#clip1_201_2)">
<path d="M88.2031 311.338H88.525C89.7339 308.856 91.907 304.405 94.3694 302.907C95.5461 302.193 99.0277 303.578 99.3393 304.896C99.9631 307.532 96.6711 311.283 95.9188 313.805C97.2497 313.01 98.5616 311.667 100.098 311.274C104.827 310.065 105.178 314.774 105.242 317.813H105.564C106.107 316.004 107.672 311.97 109.456 311.04C111.617 309.912 114.292 312.719 113.98 314.73C113.549 317.505 111.356 320.507 110.164 323.055C107.492 328.754 105.084 334.666 101.137 339.706C99.2978 342.056 95.1185 347.682 92.0711 342.724C91.2642 341.415 91.9551 339.523 92.2381 338.165C92.8523 335.217 93.6431 332.243 93.6686 329.222C89.9299 331.389 87.5092 336.823 83.0599 337.951C80.8641 338.508 76.2352 336.139 76.0902 333.847C75.8941 330.731 76.997 327.355 77.4565 324.289C78.3633 318.236 79.2021 312.228 79.2021 306.096C77.09 307.123 75.8106 309.558 74.4216 311.338C71.6248 314.914 68.5643 318.268 65.7386 321.822C64.334 323.589 62.0578 327.119 59.5921 327.514C57.7755 327.804 53.9564 325.317 54.7571 323.363C55.9755 320.383 59.7591 317.526 61.8683 315.038C66.3847 309.706 70.58 304.783 75.653 299.917C77.0774 298.551 78.1317 296.577 79.8483 295.532C82.3236 294.03 87.1075 295.969 88.6085 298.107C90.8752 301.336 88.0073 307.685 88.2038 311.338H88.2031ZM35.4823 322.13C38.967 319.773 41.7318 314.467 46.0911 313.403C48.2772 312.869 52.6492 315.31 52.8226 317.506C53.0543 320.435 52.08 323.569 51.6527 326.447C50.701 332.842 49.9488 339.081 49.9488 345.565C53.4689 342.611 56.0567 338.217 59.082 334.773C61.9655 331.489 64.5727 326.308 68.5945 324.202C70.2855 323.317 74.5003 325.396 74.4614 327.377C74.4133 329.805 69.5013 333.523 67.9902 335.389C63.5539 340.861 59.2586 345.937 54.1281 350.808C52.527 352.327 51.1416 354.632 49.277 355.82C46.7468 357.432 42.0114 355.449 40.4973 353.262C38.2857 350.062 40.9154 343.593 40.9475 340.015C38.9318 342.305 37.3404 347.284 34.46 348.623C33.1932 349.211 29.4965 347.638 29.5285 346.168C29.5861 343.497 32.1067 339.972 33.2317 337.548C31.8398 338.317 30.5988 339.637 29.0528 340.102C24.555 341.452 23.9088 337.127 23.9088 334.156C22.0668 335.671 21.6556 339.595 19.3763 340.444C16.1069 341.66 14.6344 337.24 15.6247 335.081C19.2283 327.245 22.4142 318.478 27.9019 311.646C29.612 309.518 34.7332 303.341 37.2184 308.936C37.768 310.177 37.0928 311.941 36.8327 313.188C36.1994 316.218 35.4823 319.02 35.4823 322.13V322.13ZM43.5193 331.689C45.0207 330.808 45.657 329.067 46.5862 327.681C48.5023 324.826 51.3217 322.189 51.9804 318.739C52.3795 316.642 48.6534 313.818 46.4866 314.365C45.1233 314.709 45.0238 317.362 44.7667 318.43C43.7764 322.569 43.0531 327.454 43.5193 331.689V331.689ZM84.99 319.664C82.4858 323.587 77.8789 328.013 77.1041 332.614C76.757 334.678 80.4251 337.674 82.6143 337.013C83.9388 336.613 84.0612 333.992 84.2828 332.923C85.1895 328.574 85.6332 324.098 85.6332 319.664H84.99V319.664ZM81.7736 357.899C84.5834 355.783 85.3131 351.383 88.3061 349.468C89.5824 348.652 93.125 350.287 93.2856 351.745C93.5687 354.354 90.7813 357.951 89.8105 360.366C92.0707 359.132 97.1372 355.555 98.8893 359.781C99.3459 360.878 99.0468 362.566 99.1334 363.758C100.869 362.241 101.435 358.274 103.666 357.473C106.572 356.432 108.524 360.406 107.556 362.524C104.007 370.308 100.798 379.197 95.3432 385.959C93.6553 388.05 88.3126 394.87 85.8243 389.01C85.2647 387.687 85.9337 386.043 86.1904 384.726C86.7722 381.751 87.5504 378.829 87.5599 375.783C84.0589 378.15 81.2976 383.441 76.9512 384.563C74.749 385.131 70.1936 382.684 70.0425 380.409C69.8434 377.375 70.9878 374.145 71.3926 371.158C72.2318 364.972 73.0934 358.929 73.0934 352.657C69.1617 355.336 66.2684 360.528 63.1275 364.066C60.5106 367.018 57.9709 372.309 54.1262 373.924C52.4286 374.636 47.9953 372.201 48.5965 370.229C49.3972 367.589 53.0684 364.99 54.8075 362.833C60.5461 355.716 66.3424 348.721 73.1866 342.552C75.6458 340.335 81.7282 342.384 82.8664 345.261C84.1104 348.418 82.7505 354.759 81.7732 357.899L81.7736 357.899ZM29.372 369C31.105 367.337 32.6674 365.475 34.5157 363.936C37.9461 361.084 39.7752 358.978 44.1601 361.224C45.1759 361.744 46.3142 362.311 46.6292 363.462C47.4586 366.477 45.9445 370.324 45.5394 373.317C44.6872 379.605 43.8389 385.751 43.8389 392.126C46.0021 390.534 47.4135 388.024 49.0565 385.959C51.6474 382.704 54.5022 379.678 57.061 376.4C58.4629 374.602 60.8996 370.72 63.4489 370.433C65.201 370.235 68.9526 372.658 68.271 374.55C67.2811 377.308 63.5485 379.982 61.6485 382.259C57.0034 387.829 52.6986 392.994 47.3781 397.997C45.938 399.351 44.8963 401.365 43.1927 402.425C40.627 404.017 35.9144 402.028 34.387 399.823C32.2044 396.668 34.828 390.135 34.8372 386.576C32.8601 388.883 31.3011 393.884 28.3787 395.185C27.0028 395.796 23.6432 394.263 23.6337 392.729C23.6158 389.952 26.0899 386.678 27.1218 384.109C24.804 385.574 19.8725 389.003 18.04 384.697C17.5544 383.561 17.8279 381.932 17.7989 380.717C16.1239 382.302 15.5968 385.798 13.5781 386.874C10.9288 388.287 8.35699 384.42 9.23478 382.259C12.4367 374.346 16.3074 365.331 21.615 358.516C23.2865 356.373 28.5587 349.757 31.1084 355.497C31.6611 356.746 30.9699 358.488 30.7384 359.749C30.1662 362.874 29.372 365.802 29.372 369V369ZM37.409 378.251C38.9684 377.409 39.5856 375.645 40.5274 374.242C42.4531 371.376 45.3883 368.811 45.9346 365.3C46.2626 363.208 42.569 360.358 40.3923 360.926C39.084 361.267 38.981 363.96 38.7334 364.991C37.6886 369.345 37.409 373.796 37.409 378.251ZM78.8797 366.225C76.7485 369.911 70.081 375.919 70.9747 380.396C71.3029 382.044 76.2374 384.769 77.3367 382.829C79.8285 378.425 79.5229 371.095 79.5229 366.225H78.8797Z" fill="white"/>
</g>
</g>
<defs>
<clipPath id="clip0_201_2">
<rect width="625" height="383" fill="white"/>
</clipPath>
<clipPath id="clip1_201_2">
<rect width="109" height="108" fill="white" transform="translate(5 295)"/>
</clipPath>
</defs>
</svg>
