<svg width="625" height="383" viewBox="0 0 625 383" fill="none" xmlns="http://www.w3.org/2000/svg">
<g clip-path="url(#clip0_205_6)">
<rect width="625" height="383" fill="#007DFE"/>
<path d="M191.384 84.84L201.304 129H209.432L219.352 84.84H210.712L205.336 117.864L200.024 84.84H191.384ZM230.246 91.944H242.15V84.84H222.438V129H242.15V121.96H230.246V110.056H240.486V103.016H230.246V91.944ZM248.102 126.12C250.15 128.424 253.094 129.512 256.998 129.512C260.902 129.512 263.91 128.424 266.086 126.184C268.198 124.008 269.286 120.808 269.286 116.712C269.286 113.32 268.582 110.568 267.174 108.52C265.766 106.472 263.59 104.808 260.518 103.4L257.638 102.12C255.974 101.416 254.758 100.584 254.054 99.688C253.35 98.792 253.03 97.512 253.03 95.976C253.03 92.648 254.438 90.92 257.318 90.92C258.854 90.92 259.942 91.432 260.582 92.456C261.222 93.48 261.606 94.952 261.67 96.936H268.902C268.774 92.84 267.686 89.64 265.702 87.464C263.718 85.288 260.902 84.136 257.318 84.136C253.606 84.136 250.726 85.288 248.55 87.464C246.374 89.704 245.35 92.648 245.35 96.36C245.35 99.56 245.926 102.056 247.206 103.912C248.486 105.832 250.534 107.368 253.414 108.648L256.422 109.992C258.278 110.888 259.622 111.784 260.39 112.808C261.158 113.832 261.606 115.176 261.606 116.84C261.606 118.888 261.222 120.424 260.518 121.32C259.814 122.28 258.726 122.728 257.19 122.728C255.654 122.728 254.438 122.216 253.67 121.192C252.902 120.168 252.454 118.568 252.39 116.392H244.966C244.966 120.616 246.054 123.88 248.102 126.12ZM294.36 91.944V84.84H271.256V91.944H278.936V129H286.744V91.944H294.36ZM297.569 84.84V129H305.377V84.84H297.569ZM334.041 109.608C333.337 107.944 332.057 106.728 330.137 105.832C331.865 105.064 333.081 103.848 333.849 102.312C334.553 100.776 334.937 98.92 334.937 96.744C334.937 92.648 333.977 89.64 332.185 87.72C330.329 85.8 327.257 84.84 322.969 84.84H311.001V129H322.969C327.321 129 330.457 128.04 332.313 125.992C334.105 123.944 335.065 120.68 335.065 116.2C335.065 113.512 334.681 111.272 334.041 109.608ZM318.809 91.88H322.137C323.929 91.88 325.208 92.328 325.977 93.096C326.681 93.928 327.065 95.336 327.065 97.256C327.065 99.176 326.681 100.52 325.977 101.352C325.208 102.184 323.929 102.568 322.137 102.568H318.809V91.88ZM326.105 120.552C325.337 121.512 323.993 121.96 322.073 121.96H318.809V109.352H322.073C323.865 109.352 325.208 109.864 325.977 110.824C326.745 111.848 327.193 113.448 327.193 115.624C327.193 117.928 326.809 119.592 326.105 120.552ZM346.012 128.04C347.804 129.064 349.916 129.512 352.22 129.512C354.524 129.512 356.572 129.064 358.428 128.04C360.22 127.016 361.692 125.608 362.716 123.752C363.74 121.96 364.252 119.848 364.252 117.416V84.84H356.38V117.224C356.38 120.68 354.972 122.408 352.22 122.408C350.812 122.408 349.724 122.024 349.084 121.192C348.38 120.36 348.06 119.016 348.06 117.224V84.84H340.188V117.416C340.188 119.848 340.7 121.96 341.724 123.752C342.748 125.608 344.22 127.016 346.012 128.04ZM369.626 84.84V129H389.338V121.96H377.498V84.84H369.626ZM411.11 120.424L412.902 129H421.094L409.83 84.84H402.15L390.822 129H399.014L400.806 120.424H411.11ZM409.702 113.384H402.278L405.99 95.464L409.702 113.384ZM449.148 84.84H441.276V109.416L432.06 84.84H424.188V129H432.06V105.448L441.276 129H449.148V84.84ZM454.501 84.84V129H466.341C470.053 129 473.125 127.976 475.493 125.8C477.797 123.624 479.013 120.488 479.013 116.328V97.512C479.013 93.352 477.861 90.216 475.621 88.04C473.381 85.928 470.437 84.84 466.725 84.84H454.501ZM466.533 121.96H462.309V91.944H466.533C468.069 91.944 469.221 92.584 469.989 93.736C470.757 94.888 471.141 96.616 471.141 98.856V115.432C471.141 117.48 470.693 119.08 469.925 120.232C469.157 121.384 468.005 121.96 466.533 121.96ZM487.198 126.312C489.374 128.488 492.382 129.512 496.222 129.512C499.934 129.512 503.006 128.424 505.374 126.248C507.742 124.072 508.958 120.936 508.958 116.84V96.936C508.958 92.776 507.806 89.64 505.566 87.464C503.326 85.288 500.382 84.2 496.67 84.2C492.83 84.2 489.694 85.288 487.39 87.464C485.022 89.64 483.87 92.776 483.87 96.936V116.84C483.87 121 484.958 124.136 487.198 126.312ZM499.87 120.744C499.102 121.896 497.95 122.408 496.478 122.408C493.278 122.408 491.742 120.296 491.742 115.944V98.216C491.742 95.912 492.062 94.184 492.83 93.032C493.598 91.88 494.814 91.304 496.478 91.304C498.014 91.304 499.166 91.944 499.934 93.096C500.702 94.248 501.086 95.976 501.086 98.216V115.944C501.086 117.992 500.638 119.592 499.87 120.744Z" fill="white"/>
<path d="M205.777 218.024L207.865 224H210.637L201.601 199.16H199.405L190.369 224H193.141L195.229 218.024H205.777ZM205.021 215.792H195.985L200.485 202.832L205.021 215.792ZM214.927 222.452C216.223 223.64 217.951 224.216 220.147 224.216C222.163 224.216 223.819 223.676 225.043 222.56C226.267 221.48 226.879 220.004 226.879 218.132V217.988H224.503V218.168C224.503 219.392 224.107 220.364 223.351 221.012C222.559 221.696 221.515 222.02 220.183 222.02C218.671 222.02 217.519 221.624 216.691 220.832C215.863 220.04 215.467 218.6 215.467 216.584V213.128C215.467 211.148 215.863 209.744 216.727 208.952C217.555 208.16 218.707 207.728 220.219 207.728C221.515 207.728 222.559 208.088 223.351 208.736C224.107 209.42 224.503 210.356 224.503 211.58V211.76H226.879V211.58C226.879 209.744 226.267 208.268 225.043 207.152C223.819 206.072 222.199 205.496 220.111 205.496C217.951 205.496 216.223 206.108 214.927 207.296C213.631 208.52 213.019 210.392 213.019 212.984V216.728C213.019 219.356 213.631 221.264 214.927 222.452ZM233.572 215.36H244.984V213.2C244.984 210.608 244.336 208.664 243.076 207.404C241.816 206.144 240.16 205.496 238.072 205.496C235.984 205.496 234.292 206.144 233.032 207.404C231.736 208.664 231.124 210.608 231.124 213.2V216.368C231.124 219.068 231.736 221.048 233.032 222.308C234.292 223.604 235.984 224.216 238.144 224.216C240.232 224.216 241.852 223.712 243.04 222.668C244.228 221.66 244.84 220.292 244.84 218.564V218.384H242.464V218.492C242.464 219.608 242.068 220.472 241.348 221.084C240.628 221.732 239.62 222.02 238.324 222.02C236.812 222.02 235.66 221.624 234.832 220.796C233.968 219.968 233.572 218.528 233.572 216.44V215.36ZM234.796 208.952C235.588 208.16 236.704 207.728 238.072 207.728C239.44 207.728 240.556 208.124 241.348 208.88C242.14 209.672 242.536 211.004 242.536 212.876V213.524H233.572V213.128C233.572 211.148 233.968 209.744 234.796 208.952ZM250.597 222.776C251.785 223.748 253.369 224.216 255.385 224.216C257.473 224.216 259.129 223.748 260.389 222.812C261.613 221.876 262.261 220.508 262.261 218.78C262.261 217.34 261.829 216.26 260.965 215.504C260.101 214.748 258.805 214.208 257.005 213.848L254.629 213.416C253.513 213.236 252.721 212.912 252.217 212.48C251.713 212.048 251.461 211.4 251.461 210.608C251.461 209.672 251.785 208.916 252.505 208.34C253.225 207.8 254.197 207.512 255.493 207.512C256.789 207.512 257.797 207.8 258.553 208.34C259.273 208.916 259.669 209.672 259.669 210.608V210.716H262.045V210.5C262.045 209.024 261.433 207.836 260.245 206.9C259.021 205.964 257.437 205.496 255.421 205.496C253.549 205.496 252.001 206 250.849 206.936C249.661 207.872 249.085 209.132 249.085 210.716C249.085 212.156 249.481 213.236 250.309 213.956C251.101 214.712 252.397 215.252 254.197 215.54L256.465 215.936C257.653 216.152 258.517 216.476 259.057 216.908C259.597 217.34 259.885 218.024 259.885 218.924C259.885 219.968 259.489 220.76 258.697 221.3C257.905 221.876 256.861 222.128 255.493 222.128C254.161 222.128 253.117 221.84 252.325 221.264C251.533 220.688 251.173 219.86 251.173 218.852V218.744H248.797V218.888C248.797 220.544 249.373 221.84 250.597 222.776ZM267.226 222.776C268.414 223.748 269.998 224.216 272.014 224.216C274.102 224.216 275.758 223.748 277.018 222.812C278.242 221.876 278.89 220.508 278.89 218.78C278.89 217.34 278.458 216.26 277.594 215.504C276.73 214.748 275.434 214.208 273.634 213.848L271.258 213.416C270.142 213.236 269.35 212.912 268.846 212.48C268.342 212.048 268.09 211.4 268.09 210.608C268.09 209.672 268.414 208.916 269.134 208.34C269.854 207.8 270.826 207.512 272.122 207.512C273.418 207.512 274.426 207.8 275.182 208.34C275.902 208.916 276.298 209.672 276.298 210.608V210.716H278.674V210.5C278.674 209.024 278.062 207.836 276.874 206.9C275.65 205.964 274.066 205.496 272.05 205.496C270.178 205.496 268.63 206 267.478 206.936C266.29 207.872 265.714 209.132 265.714 210.716C265.714 212.156 266.11 213.236 266.938 213.956C267.73 214.712 269.026 215.252 270.826 215.54L273.094 215.936C274.282 216.152 275.146 216.476 275.686 216.908C276.226 217.34 276.514 218.024 276.514 218.924C276.514 219.968 276.118 220.76 275.326 221.3C274.534 221.876 273.49 222.128 272.122 222.128C270.79 222.128 269.746 221.84 268.954 221.264C268.162 220.688 267.802 219.86 267.802 218.852V218.744H265.426V218.888C265.426 220.544 266.002 221.84 267.226 222.776ZM284.935 215.36H296.347V213.2C296.347 210.608 295.699 208.664 294.439 207.404C293.179 206.144 291.523 205.496 289.435 205.496C287.347 205.496 285.655 206.144 284.395 207.404C283.099 208.664 282.487 210.608 282.487 213.2V216.368C282.487 219.068 283.099 221.048 284.395 222.308C285.655 223.604 287.347 224.216 289.507 224.216C291.595 224.216 293.215 223.712 294.403 222.668C295.591 221.66 296.203 220.292 296.203 218.564V218.384H293.827V218.492C293.827 219.608 293.431 220.472 292.711 221.084C291.991 221.732 290.983 222.02 289.687 222.02C288.175 222.02 287.023 221.624 286.195 220.796C285.331 219.968 284.935 218.528 284.935 216.44V215.36ZM286.159 208.952C286.951 208.16 288.067 207.728 289.435 207.728C290.803 207.728 291.919 208.124 292.711 208.88C293.503 209.672 293.899 211.004 293.899 212.876V213.524H284.935V213.128C284.935 211.148 285.331 209.744 286.159 208.952ZM310.305 222.452C311.565 223.64 313.257 224.216 315.417 224.216C317.505 224.216 319.161 223.64 320.421 222.416C321.681 221.228 322.329 219.32 322.329 216.728V212.984C322.329 210.392 321.681 208.52 320.421 207.296C319.161 206.108 317.505 205.496 315.417 205.496C313.257 205.496 311.565 206.108 310.305 207.296C309.009 208.52 308.397 210.392 308.397 212.984V216.728C308.397 219.356 309.009 221.264 310.305 222.452ZM318.657 220.832C317.865 221.624 316.785 222.02 315.417 222.02C313.977 222.02 312.861 221.624 312.069 220.832C311.241 220.04 310.845 218.6 310.845 216.584V213.128C310.845 211.148 311.241 209.744 312.069 208.952C312.861 208.16 313.977 207.728 315.417 207.728C316.785 207.728 317.865 208.16 318.657 208.952C319.449 209.744 319.881 211.148 319.881 213.128V216.584C319.881 218.6 319.449 220.04 318.657 220.832ZM334.954 205.748V224H337.402V212.372C337.402 210.896 337.762 209.744 338.554 208.952C339.346 208.16 340.39 207.728 341.686 207.728C342.982 207.728 344.026 208.124 344.782 208.916C345.502 209.708 345.898 210.86 345.898 212.372V224H348.346V212.012C348.346 209.996 347.806 208.412 346.762 207.26C345.718 206.108 344.242 205.532 342.298 205.532C341.218 205.532 340.282 205.748 339.418 206.144C338.554 206.576 337.87 207.188 337.366 207.98V205.748H334.954ZM355.095 222.452C356.354 223.64 358.047 224.216 360.207 224.216C362.295 224.216 363.951 223.64 365.211 222.416C366.471 221.228 367.119 219.32 367.119 216.728V212.984C367.119 210.392 366.471 208.52 365.211 207.296C363.951 206.108 362.295 205.496 360.207 205.496C358.047 205.496 356.354 206.108 355.095 207.296C353.799 208.52 353.187 210.392 353.187 212.984V216.728C353.187 219.356 353.799 221.264 355.095 222.452ZM363.447 220.832C362.655 221.624 361.575 222.02 360.207 222.02C358.767 222.02 357.651 221.624 356.859 220.832C356.031 220.04 355.635 218.6 355.635 216.584V213.128C355.635 211.148 356.031 209.744 356.859 208.952C357.651 208.16 358.767 207.728 360.207 207.728C361.575 207.728 362.655 208.16 363.447 208.952C364.239 209.744 364.671 211.148 364.671 213.128V216.584C364.671 218.6 364.239 220.04 363.447 220.832ZM372.73 222.776C373.918 223.748 375.502 224.216 377.518 224.216C379.606 224.216 381.262 223.748 382.522 222.812C383.746 221.876 384.394 220.508 384.394 218.78C384.394 217.34 383.962 216.26 383.098 215.504C382.234 214.748 380.938 214.208 379.138 213.848L376.762 213.416C375.646 213.236 374.854 212.912 374.35 212.48C373.846 212.048 373.594 211.4 373.594 210.608C373.594 209.672 373.918 208.916 374.638 208.34C375.358 207.8 376.33 207.512 377.626 207.512C378.922 207.512 379.93 207.8 380.686 208.34C381.406 208.916 381.802 209.672 381.802 210.608V210.716H384.178V210.5C384.178 209.024 383.566 207.836 382.378 206.9C381.154 205.964 379.57 205.496 377.554 205.496C375.682 205.496 374.134 206 372.982 206.936C371.794 207.872 371.218 209.132 371.218 210.716C371.218 212.156 371.614 213.236 372.442 213.956C373.234 214.712 374.53 215.252 376.33 215.54L378.598 215.936C379.786 216.152 380.65 216.476 381.19 216.908C381.73 217.34 382.018 218.024 382.018 218.924C382.018 219.968 381.622 220.76 380.83 221.3C380.038 221.876 378.994 222.128 377.626 222.128C376.294 222.128 375.25 221.84 374.458 221.264C373.666 220.688 373.306 219.86 373.306 218.852V218.744H370.93V218.888C370.93 220.544 371.506 221.84 372.73 222.776ZM389.359 222.776C390.547 223.748 392.131 224.216 394.147 224.216C396.235 224.216 397.891 223.748 399.151 222.812C400.375 221.876 401.023 220.508 401.023 218.78C401.023 217.34 400.591 216.26 399.727 215.504C398.863 214.748 397.567 214.208 395.767 213.848L393.391 213.416C392.275 213.236 391.483 212.912 390.979 212.48C390.475 212.048 390.223 211.4 390.223 210.608C390.223 209.672 390.547 208.916 391.267 208.34C391.987 207.8 392.959 207.512 394.255 207.512C395.551 207.512 396.559 207.8 397.315 208.34C398.035 208.916 398.431 209.672 398.431 210.608V210.716H400.807V210.5C400.807 209.024 400.195 207.836 399.007 206.9C397.783 205.964 396.199 205.496 394.183 205.496C392.311 205.496 390.763 206 389.611 206.936C388.423 207.872 387.847 209.132 387.847 210.716C387.847 212.156 388.243 213.236 389.071 213.956C389.863 214.712 391.159 215.252 392.959 215.54L395.227 215.936C396.415 216.152 397.279 216.476 397.819 216.908C398.359 217.34 398.647 218.024 398.647 218.924C398.647 219.968 398.251 220.76 397.459 221.3C396.667 221.876 395.623 222.128 394.255 222.128C392.923 222.128 391.879 221.84 391.087 221.264C390.295 220.688 389.935 219.86 389.935 218.852V218.744H387.559V218.888C387.559 220.544 388.135 221.84 389.359 222.776ZM406.528 222.452C407.788 223.64 409.48 224.216 411.64 224.216C413.728 224.216 415.384 223.64 416.644 222.416C417.904 221.228 418.552 219.32 418.552 216.728V212.984C418.552 210.392 417.904 208.52 416.644 207.296C415.384 206.108 413.728 205.496 411.64 205.496C409.48 205.496 407.788 206.108 406.528 207.296C405.232 208.52 404.62 210.392 404.62 212.984V216.728C404.62 219.356 405.232 221.264 406.528 222.452ZM414.88 220.832C414.088 221.624 413.008 222.02 411.64 222.02C410.2 222.02 409.084 221.624 408.292 220.832C407.464 220.04 407.068 218.6 407.068 216.584V213.128C407.068 211.148 407.464 209.744 408.292 208.952C409.084 208.16 410.2 207.728 411.64 207.728C413.008 207.728 414.088 208.16 414.88 208.952C415.672 209.744 416.104 211.148 416.104 213.128V216.584C416.104 218.6 415.672 220.04 414.88 220.832ZM431.969 222.776C433.157 223.748 434.741 224.216 436.757 224.216C438.845 224.216 440.501 223.748 441.761 222.812C442.985 221.876 443.633 220.508 443.633 218.78C443.633 217.34 443.201 216.26 442.337 215.504C441.473 214.748 440.177 214.208 438.377 213.848L436.001 213.416C434.885 213.236 434.093 212.912 433.589 212.48C433.085 212.048 432.833 211.4 432.833 210.608C432.833 209.672 433.157 208.916 433.877 208.34C434.597 207.8 435.569 207.512 436.865 207.512C438.161 207.512 439.169 207.8 439.925 208.34C440.645 208.916 441.041 209.672 441.041 210.608V210.716H443.417V210.5C443.417 209.024 442.805 207.836 441.617 206.9C440.393 205.964 438.809 205.496 436.793 205.496C434.921 205.496 433.373 206 432.221 206.936C431.033 207.872 430.457 209.132 430.457 210.716C430.457 212.156 430.853 213.236 431.681 213.956C432.473 214.712 433.769 215.252 435.569 215.54L437.837 215.936C439.025 216.152 439.889 216.476 440.429 216.908C440.969 217.34 441.257 218.024 441.257 218.924C441.257 219.968 440.861 220.76 440.069 221.3C439.277 221.876 438.233 222.128 436.865 222.128C435.533 222.128 434.489 221.84 433.697 221.264C432.905 220.688 432.545 219.86 432.545 218.852V218.744H430.169V218.888C430.169 220.544 430.745 221.84 431.969 222.776ZM448.093 205.748V224H450.541V205.748H448.093ZM448.021 199.52V202.76H450.613V199.52H448.021ZM460.095 207.692H464.199V205.748H460.095V200.42L457.611 201.572V205.748H454.767V207.692H457.611V219.464C457.611 220.904 457.971 222.02 458.763 222.812C459.555 223.604 460.635 224 462.039 224H463.875V221.84H462.435C460.851 221.84 460.095 221.012 460.095 219.356V207.692ZM470.349 215.36H481.761V213.2C481.761 210.608 481.113 208.664 479.853 207.404C478.593 206.144 476.937 205.496 474.849 205.496C472.761 205.496 471.069 206.144 469.809 207.404C468.513 208.664 467.901 210.608 467.901 213.2V216.368C467.901 219.068 468.513 221.048 469.809 222.308C471.069 223.604 472.761 224.216 474.921 224.216C477.009 224.216 478.629 223.712 479.817 222.668C481.005 221.66 481.617 220.292 481.617 218.564V218.384H479.241V218.492C479.241 219.608 478.845 220.472 478.125 221.084C477.405 221.732 476.397 222.02 475.101 222.02C473.589 222.02 472.437 221.624 471.609 220.796C470.745 219.968 470.349 218.528 470.349 216.44V215.36ZM471.573 208.952C472.365 208.16 473.481 207.728 474.849 207.728C476.217 207.728 477.333 208.124 478.125 208.88C478.917 209.672 479.313 211.004 479.313 212.876V213.524H470.349V213.128C470.349 211.148 470.745 209.744 471.573 208.952ZM203.593 244.748V268.472H206.041V260.588C207.049 262.352 208.669 263.216 210.973 263.216C212.773 263.216 214.249 262.64 215.401 261.416C216.553 260.228 217.129 258.32 217.129 255.728V251.984C217.129 249.428 216.517 247.556 215.365 246.332C214.177 245.144 212.665 244.532 210.793 244.532C209.713 244.532 208.777 244.784 207.985 245.252C207.157 245.72 206.509 246.404 206.041 247.304V244.748H203.593ZM214.681 255.584C214.681 259.22 213.313 261.02 210.613 261.02C209.101 261.02 207.985 260.516 207.193 259.508C206.401 258.5 206.041 257.168 206.041 255.548V252.344C206.041 250.652 206.401 249.284 207.157 248.276C207.877 247.268 208.993 246.728 210.469 246.728C213.277 246.728 214.681 248.564 214.681 252.164V255.584ZM232.708 246.044C231.556 245.036 229.936 244.496 227.812 244.496C225.832 244.496 224.284 244.964 223.168 245.9C222.016 246.836 221.476 248.096 221.476 249.644V249.824H223.852V249.716C223.852 248.744 224.176 247.988 224.896 247.412C225.616 246.836 226.588 246.548 227.848 246.548C229.144 246.548 230.188 246.908 230.908 247.556C231.628 248.24 231.988 249.248 231.988 250.544V252.632H227.056C225.112 252.632 223.6 253.1 222.52 254.036C221.44 254.972 220.936 256.232 220.936 257.852C220.936 259.616 221.44 260.948 222.52 261.848C223.564 262.784 225.04 263.216 226.984 263.216C228.136 263.216 229.144 263.072 229.972 262.712C230.764 262.352 231.448 261.812 232.024 261.056V263H234.436V250.58C234.436 248.6 233.86 247.088 232.708 246.044ZM230.872 260.156C230.152 260.876 228.964 261.236 227.38 261.236C224.716 261.236 223.384 260.12 223.384 257.816C223.384 255.584 224.716 254.432 227.416 254.432H231.988V256.808C231.988 258.32 231.592 259.436 230.872 260.156ZM239.839 244.748V263H242.287V251.444C242.287 250.076 242.647 248.924 243.439 248.06C244.231 247.196 245.239 246.764 246.499 246.764C247.147 246.764 247.795 246.872 248.371 247.052V244.604C247.939 244.532 247.471 244.496 247.039 244.496C245.995 244.496 245.059 244.748 244.231 245.18C243.403 245.612 242.755 246.296 242.251 247.196V244.748H239.839ZM262.732 246.044C261.58 245.036 259.96 244.496 257.836 244.496C255.856 244.496 254.308 244.964 253.192 245.9C252.04 246.836 251.5 248.096 251.5 249.644V249.824H253.876V249.716C253.876 248.744 254.2 247.988 254.92 247.412C255.64 246.836 256.612 246.548 257.872 246.548C259.168 246.548 260.212 246.908 260.932 247.556C261.652 248.24 262.012 249.248 262.012 250.544V252.632H257.08C255.136 252.632 253.624 253.1 252.544 254.036C251.464 254.972 250.96 256.232 250.96 257.852C250.96 259.616 251.464 260.948 252.544 261.848C253.588 262.784 255.064 263.216 257.008 263.216C258.16 263.216 259.168 263.072 259.996 262.712C260.788 262.352 261.472 261.812 262.048 261.056V263H264.46V250.58C264.46 248.6 263.884 247.088 262.732 246.044ZM260.896 260.156C260.176 260.876 258.988 261.236 257.404 261.236C254.74 261.236 253.408 260.12 253.408 257.816C253.408 255.584 254.74 254.432 257.44 254.432H262.012V256.808C262.012 258.32 261.616 259.436 260.896 260.156ZM281.519 246.692H285.623V244.748H281.519V239.42L279.035 240.572V244.748H276.191V246.692H279.035V258.464C279.035 259.904 279.395 261.02 280.187 261.812C280.979 262.604 282.059 263 283.463 263H285.299V260.84H283.859C282.275 260.84 281.519 260.012 281.519 258.356V246.692ZM291.773 254.36H303.185V252.2C303.185 249.608 302.537 247.664 301.277 246.404C300.017 245.144 298.361 244.496 296.273 244.496C294.185 244.496 292.493 245.144 291.233 246.404C289.937 247.664 289.325 249.608 289.325 252.2V255.368C289.325 258.068 289.937 260.048 291.233 261.308C292.493 262.604 294.185 263.216 296.345 263.216C298.433 263.216 300.053 262.712 301.241 261.668C302.429 260.66 303.041 259.292 303.041 257.564V257.384H300.665V257.492C300.665 258.608 300.269 259.472 299.549 260.084C298.829 260.732 297.821 261.02 296.525 261.02C295.013 261.02 293.861 260.624 293.033 259.796C292.169 258.968 291.773 257.528 291.773 255.44V254.36ZM292.997 247.952C293.789 247.16 294.905 246.728 296.273 246.728C297.641 246.728 298.757 247.124 299.549 247.88C300.341 248.672 300.737 250.004 300.737 251.876V252.524H291.773V252.128C291.773 250.148 292.169 248.744 292.997 247.952ZM308.007 244.748V263H310.455V251.444C310.455 250.076 310.815 248.924 311.607 248.06C312.399 247.196 313.407 246.764 314.667 246.764C315.315 246.764 315.963 246.872 316.539 247.052V244.604C316.107 244.532 315.639 244.496 315.207 244.496C314.163 244.496 313.227 244.748 312.399 245.18C311.571 245.612 310.923 246.296 310.419 247.196V244.748H308.007ZM338.704 246.044C337.552 245.036 335.932 244.496 333.808 244.496C331.828 244.496 330.28 244.964 329.164 245.9C328.012 246.836 327.472 248.096 327.472 249.644V249.824H329.848V249.716C329.848 248.744 330.172 247.988 330.892 247.412C331.612 246.836 332.584 246.548 333.844 246.548C335.14 246.548 336.184 246.908 336.904 247.556C337.624 248.24 337.984 249.248 337.984 250.544V252.632H333.052C331.108 252.632 329.596 253.1 328.516 254.036C327.436 254.972 326.932 256.232 326.932 257.852C326.932 259.616 327.436 260.948 328.516 261.848C329.56 262.784 331.036 263.216 332.98 263.216C334.132 263.216 335.14 263.072 335.968 262.712C336.76 262.352 337.444 261.812 338.02 261.056V263H340.432V250.58C340.432 248.6 339.856 247.088 338.704 246.044ZM336.868 260.156C336.148 260.876 334.96 261.236 333.376 261.236C330.712 261.236 329.38 260.12 329.38 257.816C329.38 255.584 330.712 254.432 333.412 254.432H337.984V256.808C337.984 258.32 337.588 259.436 336.868 260.156ZM347.167 261.452C348.463 262.64 350.191 263.216 352.387 263.216C354.403 263.216 356.059 262.676 357.283 261.56C358.507 260.48 359.119 259.004 359.119 257.132V256.988H356.743V257.168C356.743 258.392 356.347 259.364 355.591 260.012C354.799 260.696 353.755 261.02 352.423 261.02C350.911 261.02 349.759 260.624 348.931 259.832C348.103 259.04 347.707 257.6 347.707 255.584V252.128C347.707 250.148 348.103 248.744 348.967 247.952C349.795 247.16 350.947 246.728 352.459 246.728C353.755 246.728 354.799 247.088 355.591 247.736C356.347 248.42 356.743 249.356 356.743 250.58V250.76H359.119V250.58C359.119 248.744 358.507 247.268 357.283 246.152C356.059 245.072 354.439 244.496 352.351 244.496C350.191 244.496 348.463 245.108 347.167 246.296C345.871 247.52 345.259 249.392 345.259 251.984V255.728C345.259 258.356 345.871 260.264 347.167 261.452ZM365.812 254.36H377.224V252.2C377.224 249.608 376.576 247.664 375.316 246.404C374.056 245.144 372.4 244.496 370.312 244.496C368.224 244.496 366.532 245.144 365.272 246.404C363.976 247.664 363.364 249.608 363.364 252.2V255.368C363.364 258.068 363.976 260.048 365.272 261.308C366.532 262.604 368.224 263.216 370.384 263.216C372.472 263.216 374.092 262.712 375.28 261.668C376.468 260.66 377.08 259.292 377.08 257.564V257.384H374.704V257.492C374.704 258.608 374.308 259.472 373.588 260.084C372.868 260.732 371.86 261.02 370.564 261.02C369.052 261.02 367.9 260.624 367.072 259.796C366.208 258.968 365.812 257.528 365.812 255.44V254.36ZM367.036 247.952C367.828 247.16 368.944 246.728 370.312 246.728C371.68 246.728 372.796 247.124 373.588 247.88C374.38 248.672 374.776 250.004 374.776 251.876V252.524H365.812V252.128C365.812 250.148 366.208 248.744 367.036 247.952ZM382.838 261.776C384.026 262.748 385.61 263.216 387.626 263.216C389.714 263.216 391.37 262.748 392.63 261.812C393.854 260.876 394.502 259.508 394.502 257.78C394.502 256.34 394.07 255.26 393.206 254.504C392.342 253.748 391.046 253.208 389.246 252.848L386.87 252.416C385.754 252.236 384.962 251.912 384.458 251.48C383.954 251.048 383.702 250.4 383.702 249.608C383.702 248.672 384.026 247.916 384.746 247.34C385.466 246.8 386.438 246.512 387.734 246.512C389.03 246.512 390.038 246.8 390.794 247.34C391.514 247.916 391.91 248.672 391.91 249.608V249.716H394.286V249.5C394.286 248.024 393.674 246.836 392.486 245.9C391.262 244.964 389.678 244.496 387.662 244.496C385.79 244.496 384.242 245 383.09 245.936C381.902 246.872 381.326 248.132 381.326 249.716C381.326 251.156 381.722 252.236 382.55 252.956C383.342 253.712 384.638 254.252 386.438 254.54L388.706 254.936C389.894 255.152 390.758 255.476 391.298 255.908C391.838 256.34 392.126 257.024 392.126 257.924C392.126 258.968 391.73 259.76 390.938 260.3C390.146 260.876 389.102 261.128 387.734 261.128C386.402 261.128 385.358 260.84 384.566 260.264C383.774 259.688 383.414 258.86 383.414 257.852V257.744H381.038V257.888C381.038 259.544 381.614 260.84 382.838 261.776ZM399.467 261.776C400.655 262.748 402.239 263.216 404.255 263.216C406.343 263.216 407.999 262.748 409.259 261.812C410.483 260.876 411.131 259.508 411.131 257.78C411.131 256.34 410.699 255.26 409.835 254.504C408.971 253.748 407.675 253.208 405.875 252.848L403.499 252.416C402.383 252.236 401.591 251.912 401.087 251.48C400.583 251.048 400.331 250.4 400.331 249.608C400.331 248.672 400.655 247.916 401.375 247.34C402.095 246.8 403.067 246.512 404.363 246.512C405.659 246.512 406.667 246.8 407.423 247.34C408.143 247.916 408.539 248.672 408.539 249.608V249.716H410.915V249.5C410.915 248.024 410.303 246.836 409.115 245.9C407.891 244.964 406.307 244.496 404.291 244.496C402.419 244.496 400.871 245 399.719 245.936C398.531 246.872 397.955 248.132 397.955 249.716C397.955 251.156 398.351 252.236 399.179 252.956C399.971 253.712 401.267 254.252 403.067 254.54L405.335 254.936C406.523 255.152 407.387 255.476 407.927 255.908C408.467 256.34 408.755 257.024 408.755 257.924C408.755 258.968 408.359 259.76 407.567 260.3C406.775 260.876 405.731 261.128 404.363 261.128C403.031 261.128 401.987 260.84 401.195 260.264C400.403 259.688 400.043 258.86 400.043 257.852V257.744H397.667V257.888C397.667 259.544 398.243 260.84 399.467 261.776ZM416.636 261.452C417.896 262.64 419.588 263.216 421.748 263.216C423.836 263.216 425.492 262.64 426.752 261.416C428.012 260.228 428.66 258.32 428.66 255.728V251.984C428.66 249.392 428.012 247.52 426.752 246.296C425.492 245.108 423.836 244.496 421.748 244.496C419.588 244.496 417.896 245.108 416.636 246.296C415.34 247.52 414.728 249.392 414.728 251.984V255.728C414.728 258.356 415.34 260.264 416.636 261.452ZM424.988 259.832C424.196 260.624 423.116 261.02 421.748 261.02C420.308 261.02 419.192 260.624 418.4 259.832C417.572 259.04 417.176 257.6 417.176 255.584V252.128C417.176 250.148 417.572 248.744 418.4 247.952C419.192 247.16 420.308 246.728 421.748 246.728C423.116 246.728 424.196 247.16 424.988 247.952C425.78 248.744 426.212 250.148 426.212 252.128V255.584C426.212 257.6 425.78 259.04 424.988 259.832ZM452.048 246.044C450.896 245.036 449.276 244.496 447.152 244.496C445.172 244.496 443.624 244.964 442.508 245.9C441.356 246.836 440.816 248.096 440.816 249.644V249.824H443.192V249.716C443.192 248.744 443.516 247.988 444.236 247.412C444.956 246.836 445.928 246.548 447.188 246.548C448.484 246.548 449.528 246.908 450.248 247.556C450.968 248.24 451.328 249.248 451.328 250.544V252.632H446.396C444.452 252.632 442.94 253.1 441.86 254.036C440.78 254.972 440.276 256.232 440.276 257.852C440.276 259.616 440.78 260.948 441.86 261.848C442.904 262.784 444.38 263.216 446.324 263.216C447.476 263.216 448.484 263.072 449.312 262.712C450.104 262.352 450.788 261.812 451.364 261.056V263H453.776V250.58C453.776 248.6 453.2 247.088 452.048 246.044ZM450.212 260.156C449.492 260.876 448.304 261.236 446.72 261.236C444.056 261.236 442.724 260.12 442.724 257.816C442.724 255.584 444.056 254.432 446.756 254.432H451.328V256.808C451.328 258.32 450.932 259.436 450.212 260.156ZM442.904 237.908L447.224 242.408H449.492L445.928 237.908H442.904ZM459.971 261.776C461.159 262.748 462.743 263.216 464.759 263.216C466.847 263.216 468.503 262.748 469.763 261.812C470.987 260.876 471.635 259.508 471.635 257.78C471.635 256.34 471.203 255.26 470.339 254.504C469.475 253.748 468.179 253.208 466.379 252.848L464.003 252.416C462.887 252.236 462.095 251.912 461.591 251.48C461.087 251.048 460.835 250.4 460.835 249.608C460.835 248.672 461.159 247.916 461.879 247.34C462.599 246.8 463.571 246.512 464.867 246.512C466.163 246.512 467.171 246.8 467.927 247.34C468.647 247.916 469.043 248.672 469.043 249.608V249.716H471.419V249.5C471.419 248.024 470.807 246.836 469.619 245.9C468.395 244.964 466.811 244.496 464.795 244.496C462.923 244.496 461.375 245 460.223 245.936C459.035 246.872 458.459 248.132 458.459 249.716C458.459 251.156 458.855 252.236 459.683 252.956C460.475 253.712 461.771 254.252 463.571 254.54L465.839 254.936C467.027 255.152 467.891 255.476 468.431 255.908C468.971 256.34 469.259 257.024 469.259 257.924C469.259 258.968 468.863 259.76 468.071 260.3C467.279 260.876 466.235 261.128 464.867 261.128C463.535 261.128 462.491 260.84 461.699 260.264C460.907 259.688 460.547 258.86 460.547 257.852V257.744H458.171V257.888C458.171 259.544 458.747 260.84 459.971 261.776ZM212.206 283.748V302H214.654V290.372C214.654 288.896 215.014 287.744 215.806 286.952C216.598 286.16 217.642 285.728 218.938 285.728C220.234 285.728 221.278 286.124 222.034 286.916C222.754 287.708 223.15 288.86 223.15 290.372V302H225.598V290.012C225.598 287.996 225.058 286.412 224.014 285.26C222.97 284.108 221.494 283.532 219.55 283.532C218.47 283.532 217.534 283.748 216.67 284.144C215.806 284.576 215.122 285.188 214.618 285.98V283.748H212.206ZM232.346 300.452C233.606 301.64 235.298 302.216 237.458 302.216C239.546 302.216 241.202 301.64 242.462 300.416C243.722 299.228 244.37 297.32 244.37 294.728V290.984C244.37 288.392 243.722 286.52 242.462 285.296C241.202 284.108 239.546 283.496 237.458 283.496C235.298 283.496 233.606 284.108 232.346 285.296C231.05 286.52 230.438 288.392 230.438 290.984V294.728C230.438 297.356 231.05 299.264 232.346 300.452ZM240.698 298.832C239.906 299.624 238.826 300.02 237.458 300.02C236.018 300.02 234.902 299.624 234.11 298.832C233.282 298.04 232.886 296.6 232.886 294.584V291.128C232.886 289.148 233.282 287.744 234.11 286.952C234.902 286.16 236.018 285.728 237.458 285.728C238.826 285.728 239.906 286.16 240.698 286.952C241.49 287.744 241.922 289.148 241.922 291.128V294.584C241.922 296.6 241.49 298.04 240.698 298.832ZM253.042 285.692H257.146V283.748H253.042V278.42L250.558 279.572V283.748H247.714V285.692H250.558V297.464C250.558 298.904 250.918 300.02 251.71 300.812C252.502 301.604 253.582 302 254.986 302H256.822V299.84H255.382C253.798 299.84 253.042 299.012 253.042 297.356V285.692ZM272.189 285.044C271.037 284.036 269.417 283.496 267.293 283.496C265.313 283.496 263.765 283.964 262.649 284.9C261.497 285.836 260.957 287.096 260.957 288.644V288.824H263.333V288.716C263.333 287.744 263.657 286.988 264.377 286.412C265.097 285.836 266.069 285.548 267.329 285.548C268.625 285.548 269.669 285.908 270.389 286.556C271.109 287.24 271.469 288.248 271.469 289.544V291.632H266.537C264.593 291.632 263.081 292.1 262.001 293.036C260.921 293.972 260.417 295.232 260.417 296.852C260.417 298.616 260.921 299.948 262.001 300.848C263.045 301.784 264.521 302.216 266.465 302.216C267.617 302.216 268.625 302.072 269.453 301.712C270.245 301.352 270.929 300.812 271.505 300.056V302H273.917V289.58C273.917 287.6 273.341 286.088 272.189 285.044ZM270.353 299.156C269.633 299.876 268.445 300.236 266.861 300.236C264.197 300.236 262.865 299.12 262.865 296.816C262.865 294.584 264.197 293.432 266.897 293.432H271.469V295.808C271.469 297.32 271.073 298.436 270.353 299.156ZM280.111 300.776C281.299 301.748 282.883 302.216 284.899 302.216C286.987 302.216 288.643 301.748 289.903 300.812C291.127 299.876 291.775 298.508 291.775 296.78C291.775 295.34 291.343 294.26 290.479 293.504C289.615 292.748 288.319 292.208 286.519 291.848L284.143 291.416C283.027 291.236 282.235 290.912 281.731 290.48C281.227 290.048 280.975 289.4 280.975 288.608C280.975 287.672 281.299 286.916 282.019 286.34C282.739 285.8 283.711 285.512 285.007 285.512C286.303 285.512 287.311 285.8 288.067 286.34C288.787 286.916 289.183 287.672 289.183 288.608V288.716H291.559V288.5C291.559 287.024 290.947 285.836 289.759 284.9C288.535 283.964 286.951 283.496 284.935 283.496C283.063 283.496 281.515 284 280.363 284.936C279.175 285.872 278.599 287.132 278.599 288.716C278.599 290.156 278.995 291.236 279.823 291.956C280.615 292.712 281.911 293.252 283.711 293.54L285.979 293.936C287.167 294.152 288.031 294.476 288.571 294.908C289.111 295.34 289.399 296.024 289.399 296.924C289.399 297.968 289.003 298.76 288.211 299.3C287.419 299.876 286.375 300.128 285.007 300.128C283.675 300.128 282.631 299.84 281.839 299.264C281.047 298.688 280.687 297.86 280.687 296.852V296.744H278.311V296.888C278.311 298.544 278.887 299.84 280.111 300.776ZM305.625 293.36H317.037V291.2C317.037 288.608 316.389 286.664 315.129 285.404C313.869 284.144 312.213 283.496 310.125 283.496C308.037 283.496 306.345 284.144 305.085 285.404C303.789 286.664 303.177 288.608 303.177 291.2V294.368C303.177 297.068 303.789 299.048 305.085 300.308C306.345 301.604 308.037 302.216 310.197 302.216C312.285 302.216 313.905 301.712 315.093 300.668C316.281 299.66 316.893 298.292 316.893 296.564V296.384H314.517V296.492C314.517 297.608 314.121 298.472 313.401 299.084C312.681 299.732 311.673 300.02 310.377 300.02C308.865 300.02 307.713 299.624 306.885 298.796C306.021 297.968 305.625 296.528 305.625 294.44V293.36ZM306.849 286.952C307.641 286.16 308.757 285.728 310.125 285.728C311.493 285.728 312.609 286.124 313.401 286.88C314.193 287.672 314.589 289.004 314.589 290.876V291.524H305.625V291.128C305.625 289.148 306.021 287.744 306.849 286.952ZM329.663 283.748V302H332.111V290.444C332.111 289.076 332.471 287.924 333.263 287.06C334.055 286.196 335.063 285.764 336.323 285.764C336.971 285.764 337.619 285.872 338.195 286.052V283.604C337.763 283.532 337.295 283.496 336.863 283.496C335.819 283.496 334.883 283.748 334.055 284.18C333.227 284.612 332.579 285.296 332.075 286.196V283.748H329.663ZM343.664 293.36H355.076V291.2C355.076 288.608 354.428 286.664 353.168 285.404C351.908 284.144 350.252 283.496 348.164 283.496C346.076 283.496 344.384 284.144 343.124 285.404C341.828 286.664 341.216 288.608 341.216 291.2V294.368C341.216 297.068 341.828 299.048 343.124 300.308C344.384 301.604 346.076 302.216 348.236 302.216C350.324 302.216 351.944 301.712 353.132 300.668C354.32 299.66 354.932 298.292 354.932 296.564V296.384H352.556V296.492C352.556 297.608 352.16 298.472 351.44 299.084C350.72 299.732 349.712 300.02 348.416 300.02C346.904 300.02 345.752 299.624 344.924 298.796C344.06 297.968 343.664 296.528 343.664 294.44V293.36ZM344.888 286.952C345.68 286.16 346.796 285.728 348.164 285.728C349.532 285.728 350.648 286.124 351.44 286.88C352.232 287.672 352.628 289.004 352.628 290.876V291.524H343.664V291.128C343.664 289.148 344.06 287.744 344.888 286.952ZM361.049 300.416C362.201 301.64 363.677 302.216 365.477 302.216C366.629 302.216 367.601 302 368.429 301.568C369.257 301.136 369.905 300.452 370.409 299.588V302H372.893V277.16H370.409V286.304C369.329 284.432 367.709 283.496 365.513 283.496C363.677 283.496 362.201 284.108 361.049 285.332C359.897 286.556 359.321 288.428 359.321 290.984V294.728C359.321 297.32 359.897 299.192 361.049 300.416ZM369.257 298.508C368.465 299.516 367.349 300.02 365.837 300.02C363.137 300.02 361.805 298.22 361.805 294.584V291.128C361.805 287.528 363.173 285.728 365.981 285.728C367.421 285.728 368.537 286.268 369.293 287.276C370.013 288.284 370.409 289.652 370.409 291.344V294.548C370.409 296.204 370.013 297.5 369.257 298.508ZM389.048 285.044C387.896 284.036 386.276 283.496 384.152 283.496C382.172 283.496 380.624 283.964 379.508 284.9C378.356 285.836 377.816 287.096 377.816 288.644V288.824H380.192V288.716C380.192 287.744 380.516 286.988 381.236 286.412C381.956 285.836 382.928 285.548 384.188 285.548C385.484 285.548 386.528 285.908 387.248 286.556C387.968 287.24 388.328 288.248 388.328 289.544V291.632H383.396C381.452 291.632 379.94 292.1 378.86 293.036C377.78 293.972 377.276 295.232 377.276 296.852C377.276 298.616 377.78 299.948 378.86 300.848C379.904 301.784 381.38 302.216 383.324 302.216C384.476 302.216 385.484 302.072 386.312 301.712C387.104 301.352 387.788 300.812 388.364 300.056V302H390.776V289.58C390.776 287.6 390.2 286.088 389.048 285.044ZM387.212 299.156C386.492 299.876 385.304 300.236 383.72 300.236C381.056 300.236 379.724 299.12 379.724 296.816C379.724 294.584 381.056 293.432 383.756 293.432H388.328V295.808C388.328 297.32 387.932 298.436 387.212 299.156ZM407.087 289.76H409.463V289.58C409.463 287.744 408.851 286.268 407.627 285.152C406.403 284.072 404.783 283.496 402.695 283.496C400.535 283.496 398.807 284.108 397.511 285.296C396.215 286.52 395.603 288.392 395.603 290.984V294.728C395.603 297.248 396.179 299.12 397.403 300.308C398.591 301.532 400.211 302.144 402.299 302.216L400.283 307.4H402.839L404.603 302.036C406.115 301.748 407.303 301.064 408.167 300.02C409.031 298.976 409.463 297.68 409.463 296.132V295.988H407.087V296.168C407.087 297.392 406.691 298.364 405.935 299.012C405.143 299.696 404.099 300.02 402.767 300.02C401.255 300.02 400.103 299.624 399.275 298.832C398.447 298.04 398.051 296.6 398.051 294.584V291.128C398.051 289.148 398.447 287.744 399.311 286.952C400.139 286.16 401.291 285.728 402.803 285.728C404.099 285.728 405.143 286.088 405.935 286.736C406.691 287.42 407.087 288.356 407.087 289.58V289.76ZM415.616 300.452C416.876 301.64 418.568 302.216 420.728 302.216C422.816 302.216 424.472 301.64 425.732 300.416C426.992 299.228 427.64 297.32 427.64 294.728V290.984C427.64 288.392 426.992 286.52 425.732 285.296C424.472 284.108 422.816 283.496 420.728 283.496C418.568 283.496 416.876 284.108 415.616 285.296C414.32 286.52 413.708 288.392 413.708 290.984V294.728C413.708 297.356 414.32 299.264 415.616 300.452ZM423.968 298.832C423.176 299.624 422.096 300.02 420.728 300.02C419.288 300.02 418.172 299.624 417.38 298.832C416.552 298.04 416.156 296.6 416.156 294.584V291.128C416.156 289.148 416.552 287.744 417.38 286.952C418.172 286.16 419.288 285.728 420.728 285.728C422.096 285.728 423.176 286.16 423.968 286.952C424.76 287.744 425.192 289.148 425.192 291.128V294.584C425.192 296.6 424.76 298.04 423.968 298.832ZM416.192 279.32V281.516C416.66 281.012 417.056 280.652 417.416 280.436C417.74 280.22 418.136 280.112 418.604 280.112C418.784 280.112 419 280.148 419.216 280.22C419.432 280.292 419.648 280.364 419.9 280.472C420.116 280.616 420.296 280.688 420.368 280.724C420.8 281.012 421.196 281.192 421.52 281.3C421.808 281.444 422.168 281.48 422.6 281.48C423.464 281.48 424.292 281.048 425.084 280.148V277.952C424.58 278.492 424.148 278.852 423.824 279.068C423.5 279.284 423.14 279.356 422.708 279.356C422.348 279.356 422.06 279.32 421.772 279.176C421.484 279.068 421.196 278.888 420.836 278.672C420.404 278.456 420.008 278.276 419.72 278.132C419.396 278.024 419.036 277.952 418.676 277.952C418.172 277.952 417.74 278.06 417.38 278.276C416.984 278.492 416.588 278.852 416.192 279.32ZM434.332 293.36H445.744V291.2C445.744 288.608 445.096 286.664 443.836 285.404C442.576 284.144 440.92 283.496 438.832 283.496C436.744 283.496 435.052 284.144 433.792 285.404C432.496 286.664 431.884 288.608 431.884 291.2V294.368C431.884 297.068 432.496 299.048 433.792 300.308C435.052 301.604 436.744 302.216 438.904 302.216C440.992 302.216 442.612 301.712 443.8 300.668C444.988 299.66 445.6 298.292 445.6 296.564V296.384H443.224V296.492C443.224 297.608 442.828 298.472 442.108 299.084C441.388 299.732 440.38 300.02 439.084 300.02C437.572 300.02 436.42 299.624 435.592 298.796C434.728 297.968 434.332 296.528 434.332 294.44V293.36ZM435.556 286.952C436.348 286.16 437.464 285.728 438.832 285.728C440.2 285.728 441.316 286.124 442.108 286.88C442.9 287.672 443.296 289.004 443.296 290.876V291.524H434.332V291.128C434.332 289.148 434.728 287.744 435.556 286.952ZM451.357 300.776C452.545 301.748 454.129 302.216 456.145 302.216C458.233 302.216 459.889 301.748 461.149 300.812C462.373 299.876 463.021 298.508 463.021 296.78C463.021 295.34 462.589 294.26 461.725 293.504C460.861 292.748 459.565 292.208 457.765 291.848L455.389 291.416C454.273 291.236 453.481 290.912 452.977 290.48C452.473 290.048 452.221 289.4 452.221 288.608C452.221 287.672 452.545 286.916 453.265 286.34C453.985 285.8 454.957 285.512 456.253 285.512C457.549 285.512 458.557 285.8 459.313 286.34C460.033 286.916 460.429 287.672 460.429 288.608V288.716H462.805V288.5C462.805 287.024 462.193 285.836 461.005 284.9C459.781 283.964 458.197 283.496 456.181 283.496C454.309 283.496 452.761 284 451.609 284.936C450.421 285.872 449.845 287.132 449.845 288.716C449.845 290.156 450.241 291.236 451.069 291.956C451.861 292.712 453.157 293.252 454.957 293.54L457.225 293.936C458.413 294.152 459.277 294.476 459.817 294.908C460.357 295.34 460.645 296.024 460.645 296.924C460.645 297.968 460.249 298.76 459.457 299.3C458.665 299.876 457.621 300.128 456.253 300.128C454.921 300.128 453.877 299.84 453.085 299.264C452.293 298.688 451.933 297.86 451.933 296.852V296.744H449.557V296.888C449.557 298.544 450.133 299.84 451.357 300.776ZM282.756 339.416C283.908 340.64 285.384 341.216 287.184 341.216C288.336 341.216 289.308 341 290.136 340.568C290.964 340.136 291.612 339.452 292.116 338.588V341H294.6V316.16H292.116V325.304C291.036 323.432 289.416 322.496 287.22 322.496C285.384 322.496 283.908 323.108 282.756 324.332C281.604 325.556 281.028 327.428 281.028 329.984V333.728C281.028 336.32 281.604 338.192 282.756 339.416ZM290.964 337.508C290.172 338.516 289.056 339.02 287.544 339.02C284.844 339.02 283.512 337.22 283.512 333.584V330.128C283.512 326.528 284.88 324.728 287.688 324.728C289.128 324.728 290.244 325.268 291 326.276C291.72 327.284 292.116 328.652 292.116 330.344V333.548C292.116 335.204 291.72 336.5 290.964 337.508ZM301.863 332.36H313.275V330.2C313.275 327.608 312.627 325.664 311.367 324.404C310.107 323.144 308.451 322.496 306.363 322.496C304.275 322.496 302.583 323.144 301.323 324.404C300.027 325.664 299.415 327.608 299.415 330.2V333.368C299.415 336.068 300.027 338.048 301.323 339.308C302.583 340.604 304.275 341.216 306.435 341.216C308.523 341.216 310.143 340.712 311.331 339.668C312.519 338.66 313.131 337.292 313.131 335.564V335.384H310.755V335.492C310.755 336.608 310.359 337.472 309.639 338.084C308.919 338.732 307.911 339.02 306.615 339.02C305.103 339.02 303.951 338.624 303.123 337.796C302.259 336.968 301.863 335.528 301.863 333.44V332.36ZM303.087 325.952C303.879 325.16 304.995 324.728 306.363 324.728C307.731 324.728 308.847 325.124 309.639 325.88C310.431 326.672 310.827 328.004 310.827 329.876V330.524H301.863V330.128C301.863 328.148 302.259 326.744 303.087 325.952ZM325.325 338.876V341H337.925V338.66H328.565L335.765 328.292C336.485 327.32 337.025 326.384 337.385 325.448C337.745 324.548 337.925 323.576 337.925 322.568V321.956C337.925 320.804 337.637 319.76 337.133 318.824C336.629 317.888 335.873 317.168 334.937 316.628C333.965 316.088 332.849 315.8 331.625 315.8C329.681 315.8 328.169 316.376 327.017 317.528C325.865 318.68 325.325 320.156 325.325 322.028V322.82H327.917V322.172C327.917 320.876 328.241 319.868 328.889 319.184C329.537 318.5 330.401 318.14 331.553 318.14C332.669 318.14 333.569 318.5 334.253 319.184C334.901 319.904 335.261 320.84 335.261 322.028V322.568C335.261 323.936 334.721 325.376 333.677 326.924L325.325 338.876ZM342.417 333.404C342.417 338.732 344.577 341.36 348.897 341.36C353.217 341.36 355.413 338.732 355.413 333.404V323.612C355.413 318.428 353.217 315.8 348.897 315.8C344.577 315.8 342.417 318.428 342.417 323.612V333.404ZM351.885 337.58C351.273 338.516 350.265 338.984 348.897 338.984C347.493 338.984 346.485 338.516 345.909 337.58C345.333 336.644 345.045 335.096 345.045 332.9V324.26C345.045 322.1 345.333 320.516 345.909 319.58C346.485 318.644 347.493 318.176 348.897 318.176C350.265 318.176 351.273 318.644 351.885 319.58C352.461 320.516 352.785 322.1 352.785 324.26V332.9C352.785 335.096 352.461 336.644 351.885 337.58ZM359.919 338.876V341H372.519V338.66H363.159L370.359 328.292C371.079 327.32 371.619 326.384 371.979 325.448C372.339 324.548 372.519 323.576 372.519 322.568V321.956C372.519 320.804 372.231 319.76 371.727 318.824C371.223 317.888 370.467 317.168 369.531 316.628C368.559 316.088 367.443 315.8 366.219 315.8C364.275 315.8 362.763 316.376 361.611 317.528C360.459 318.68 359.919 320.156 359.919 322.028V322.82H362.511V322.172C362.511 320.876 362.835 319.868 363.483 319.184C364.131 318.5 364.995 318.14 366.147 318.14C367.263 318.14 368.163 318.5 368.847 319.184C369.495 319.904 369.855 320.84 369.855 322.028V322.568C369.855 323.936 369.315 325.376 368.271 326.924L359.919 338.876ZM380.719 319.184V341H383.311V316.16H380.683L376.435 319.436V322.388L380.719 319.184ZM389.29 316.16L389.794 333.944H391.81L392.314 316.16H389.29ZM389.182 337.652V341H392.386V337.652H389.182Z" fill="white"/>
<path d="M83.5722 26.3365H83.8809C85.0404 23.8549 87.1246 19.4047 89.4862 17.9065C90.6149 17.1927 93.954 18.5771 94.2529 19.8952C94.8511 22.5305 91.6938 26.2816 90.9723 28.803C92.2487 28.0084 93.507 26.6658 94.9806 26.2725C99.5161 25.064 99.8523 29.7719 99.9137 32.8114H100.223C100.743 31.0018 102.245 26.969 103.956 26.0383C106.028 24.9111 108.594 27.7172 108.294 29.7283C107.881 32.5026 105.778 35.5044 104.635 38.0529C102.072 43.7508 99.763 49.6629 95.9768 54.7026C94.213 57.0522 90.2047 62.6771 87.282 57.7202C86.5081 56.4112 87.1707 54.5193 87.4422 53.1609C88.0312 50.2132 88.7897 47.2403 88.8141 44.2195C85.2284 46.3861 82.9067 51.819 78.6394 52.9476C76.5335 53.504 72.0939 51.1355 71.9548 48.8442C71.7668 45.7275 72.8245 42.3521 73.2653 39.2862C74.135 33.2339 74.9395 27.2269 74.9395 21.0949C72.9137 22.1219 71.6867 24.5563 70.3546 26.3365C67.6722 29.9124 64.7369 33.2658 62.0267 36.8197C60.6796 38.5863 58.4965 42.1165 56.1317 42.5109C54.3895 42.8014 50.7266 40.3147 51.4945 38.3603C52.663 35.3804 56.2919 32.5242 58.3148 30.0363C62.6465 24.7052 66.6701 19.7826 71.5356 14.9164C72.9017 13.551 73.9129 11.5769 75.5592 10.5323C77.9333 9.02981 82.5214 10.9688 83.9611 13.1072C86.135 16.3352 83.3845 22.6838 83.5729 26.3365H83.5722ZM33.0083 37.1281C36.3504 34.7712 39.0021 29.4653 43.183 28.401C45.2797 27.8676 49.4728 30.3082 49.6392 32.5044C49.8614 35.4324 48.9269 38.567 48.5172 41.4444C47.6043 47.8384 46.8829 54.077 46.8829 60.5606C50.259 57.6071 52.7409 53.2132 55.6425 49.7694C58.408 46.4862 60.9086 41.3058 64.7658 39.1992C66.3876 38.3146 70.43 40.3937 70.3927 42.3741C70.3466 44.8019 65.6355 48.5193 64.1863 50.3859C59.9314 55.8576 55.8119 60.9323 50.8912 65.8037C49.3557 67.322 48.0269 69.6269 46.2386 70.8151C43.8119 72.4268 39.2703 70.4442 37.8181 68.2568C35.6969 65.0577 38.2191 58.5891 38.2499 55.011C36.3167 57.3009 34.7904 62.2794 32.0277 63.6184C30.8128 64.2067 27.2673 62.6339 27.2981 61.1639C27.3533 58.4928 29.7708 54.9682 30.8498 52.5444C29.5148 53.3131 28.3246 54.6335 26.8418 55.0977C22.528 56.4477 21.9082 52.1229 21.9082 49.1526C20.1416 50.6679 19.7472 54.5914 17.5612 55.4401C14.4255 56.6562 13.0133 52.2364 13.963 50.0775C17.4192 42.2424 20.4748 33.4761 25.738 26.6449C27.3781 24.5165 32.2898 18.3404 34.6733 23.9348C35.2005 25.1754 34.5529 26.9391 34.3034 28.1867C33.696 31.2167 33.0083 34.018 33.0083 37.1281V37.1281ZM40.7165 46.6861C42.1565 45.8051 42.7667 44.064 43.6579 42.6778C45.4956 39.8237 48.1997 37.1871 48.8314 33.7367C49.2142 31.6403 45.6405 28.8167 43.5624 29.3633C42.2548 29.7071 42.1594 32.3596 41.9128 33.4283C40.963 37.5668 40.2694 42.4513 40.7165 46.6861V46.6861ZM80.4906 34.6615C78.0888 38.585 73.6704 43.0104 72.9273 47.611C72.5944 49.6751 76.1124 52.6699 78.2121 52.0092C79.4824 51.609 79.5998 48.9887 79.8123 47.9194C80.682 43.5708 81.1075 39.0957 81.1075 34.6615H80.4906V34.6615ZM77.4058 72.8935C80.1006 70.7778 80.8005 66.3781 83.671 64.4636C84.8951 63.6477 88.2928 65.282 88.4468 66.7406C88.7183 69.3492 86.045 72.9455 85.1139 75.3601C87.2816 74.1261 92.1408 70.5503 93.8212 74.7759C94.2591 75.8727 93.9723 77.5603 94.0553 78.752C95.7204 77.2351 96.2629 73.2685 98.4028 72.4677C101.19 71.4265 103.062 75.4 102.133 77.5186C98.7295 85.3019 95.6523 94.1902 90.4202 100.952C88.8014 103.042 83.6772 109.862 81.2907 104.002C80.754 102.68 81.3957 101.035 81.6419 99.7183C82.1999 96.7435 82.9463 93.8215 82.9554 90.7765C79.5976 93.1432 76.9492 98.4338 72.7806 99.5552C70.6685 100.123 66.2995 97.6761 66.1546 95.4013C65.9637 92.3683 67.0612 89.1386 67.4494 86.1517C68.2543 79.9659 69.0807 73.9234 69.0807 67.652C65.3099 70.3304 62.5349 75.5223 59.5225 79.0604C57.0126 82.0121 54.5769 87.302 50.8894 88.9169C49.2613 89.6295 45.0094 87.1941 45.586 85.2225C46.3539 82.5825 49.8749 79.9838 51.5429 77.8268C57.0467 70.7109 62.6058 63.7165 69.17 57.5478C71.5286 55.3315 77.3622 57.3796 78.4539 60.257C79.647 63.414 78.3427 69.7542 77.4053 72.8935L77.4058 72.8935ZM27.1479 83.9936C28.8101 82.3307 30.3086 80.4693 32.0812 78.9305C35.3713 76.078 37.1256 73.9721 41.331 76.2181C42.3053 76.7387 43.397 77.3054 43.6991 78.456C44.4946 81.4714 43.0425 85.3176 42.6539 88.3099C41.8366 94.5982 41.023 100.743 41.023 107.118C43.0977 105.526 44.4514 103.016 46.0271 100.952C48.512 97.6966 51.25 94.671 53.7042 91.3933C55.0487 89.5955 57.3857 85.7134 59.8308 85.4263C61.5112 85.2291 65.1093 87.6513 64.4555 89.5432C63.5062 92.3014 59.9263 94.9746 58.104 97.2514C53.6489 102.821 49.5203 107.986 44.4174 112.989C43.0362 114.342 42.0371 116.356 40.4032 117.416C37.9425 119.007 33.4227 117.018 31.9578 114.814C29.8644 111.66 32.3807 105.127 32.3895 101.568C30.4933 103.875 28.9981 108.876 26.1952 110.177C24.8756 110.787 21.6535 109.255 21.6444 107.721C21.6272 104.944 24.0001 101.671 24.9898 99.1014C22.7668 100.566 18.0371 103.995 16.2795 99.6894C15.8138 98.5538 16.0761 96.925 16.0483 95.71C14.4419 97.2942 13.9363 100.79 12.0002 101.867C9.45928 103.279 6.99267 99.4125 7.83454 97.2514C10.9055 89.3397 14.6178 80.3248 19.7083 73.5104C21.3114 71.3676 26.368 64.7526 28.8133 70.4917C29.3434 71.7404 28.6805 73.483 28.4584 74.7437C27.9096 77.868 27.1479 80.7956 27.1479 83.9936V83.9936ZM34.8561 93.2435C36.3517 92.4016 36.9437 90.6382 37.847 89.2352C39.6938 86.369 42.509 83.8052 43.033 80.2936C43.3476 78.2025 39.805 75.3524 37.7174 75.9203C36.4626 76.2617 36.3638 78.9546 36.1263 79.9853C35.1243 84.3389 34.8561 88.7896 34.8561 93.2435ZM74.6303 81.2186C72.5863 84.9042 66.1915 90.9126 67.0487 95.3885C67.3634 97.0363 72.0961 99.7618 73.1504 97.8214C75.5402 93.4176 75.2471 86.0881 75.2471 81.2186H74.6303Z" fill="white"/>
<path d="M83.5722 -68.6635H83.8809C85.0404 -71.1451 87.1246 -75.5953 89.4862 -77.0935C90.6149 -77.8073 93.954 -76.4229 94.2529 -75.1048C94.8511 -72.4695 91.6938 -68.7184 90.9723 -66.197C92.2487 -66.9916 93.507 -68.3342 94.9806 -68.7275C99.5161 -69.936 99.8523 -65.2281 99.9137 -62.1886H100.223C100.743 -63.9982 102.245 -68.031 103.956 -68.9617C106.028 -70.0889 108.594 -67.2828 108.294 -65.2717C107.881 -62.4974 105.778 -59.4956 104.635 -56.9471C102.072 -51.2492 99.763 -45.3371 95.9768 -40.2974C94.213 -37.9478 90.2047 -32.3229 87.282 -37.2798C86.5081 -38.5888 87.1707 -40.4807 87.4422 -41.8391C88.0312 -44.7868 88.7897 -47.7597 88.8141 -50.7805C85.2284 -48.6139 82.9067 -43.181 78.6394 -42.0524C76.5335 -41.496 72.0939 -43.8645 71.9548 -46.1558C71.7668 -49.2725 72.8245 -52.6479 73.2653 -55.7138C74.135 -61.7661 74.9395 -67.7731 74.9395 -73.9051C72.9137 -72.8781 71.6867 -70.4437 70.3546 -68.6635C67.6722 -65.0876 64.7369 -61.7342 62.0267 -58.1803C60.6796 -56.4137 58.4965 -52.8835 56.1317 -52.4891C54.3895 -52.1986 50.7266 -54.6853 51.4945 -56.6397C52.663 -59.6196 56.2919 -62.4758 58.3148 -64.9637C62.6465 -70.2948 66.6701 -75.2174 71.5356 -80.0836C72.9017 -81.449 73.9129 -83.4231 75.5592 -84.4677C77.9333 -85.9702 82.5214 -84.0312 83.9611 -81.8928C86.135 -78.6648 83.3845 -72.3162 83.5729 -68.6635H83.5722ZM33.0083 -57.8719C36.3504 -60.2288 39.0021 -65.5347 43.183 -66.599C45.2797 -67.1324 49.4728 -64.6918 49.6392 -62.4956C49.8614 -59.5676 48.9269 -56.433 48.5172 -53.5556C47.6043 -47.1616 46.8829 -40.923 46.8829 -34.4394C50.259 -37.3929 52.7409 -41.7868 55.6425 -45.2306C58.408 -48.5138 60.9086 -53.6942 64.7658 -55.8008C66.3876 -56.6854 70.43 -54.6063 70.3927 -52.6259C70.3466 -50.1981 65.6355 -46.4807 64.1863 -44.6141C59.9314 -39.1424 55.8119 -34.0677 50.8912 -29.1963C49.3557 -27.678 48.0269 -25.3731 46.2386 -24.1849C43.8119 -22.5732 39.2703 -24.5558 37.8181 -26.7432C35.6969 -29.9423 38.2191 -36.4109 38.2499 -39.989C36.3167 -37.6991 34.7904 -32.7206 32.0277 -31.3816C30.8128 -30.7933 27.2673 -32.3661 27.2981 -33.8361C27.3533 -36.5072 29.7708 -40.0318 30.8498 -42.4556C29.5148 -41.6869 28.3246 -40.3665 26.8418 -39.9023C22.528 -38.5523 21.9082 -42.8771 21.9082 -45.8474C20.1416 -44.3321 19.7472 -40.4086 17.5612 -39.5599C14.4255 -38.3438 13.0133 -42.7636 13.963 -44.9225C17.4192 -52.7576 20.4748 -61.5239 25.738 -68.3551C27.3781 -70.4835 32.2898 -76.6596 34.6733 -71.0652C35.2005 -69.8246 34.5529 -68.0609 34.3034 -66.8133C33.696 -63.7833 33.0083 -60.982 33.0083 -57.8719V-57.8719ZM40.7165 -48.3139C42.1565 -49.1949 42.7667 -50.936 43.6579 -52.3222C45.4956 -55.1763 48.1997 -57.8129 48.8314 -61.2633C49.2142 -63.3597 45.6405 -66.1833 43.5624 -65.6367C42.2548 -65.2929 42.1594 -62.6404 41.9128 -61.5717C40.963 -57.4332 40.2694 -52.5487 40.7165 -48.3139V-48.3139ZM80.4906 -60.3385C78.0888 -56.415 73.6704 -51.9896 72.9273 -47.389C72.5944 -45.3249 76.1124 -42.3301 78.2121 -42.9908C79.4824 -43.391 79.5998 -46.0113 79.8123 -47.0806C80.682 -51.4292 81.1075 -55.9043 81.1075 -60.3385H80.4906V-60.3385ZM77.4058 -22.1065C80.1006 -24.2222 80.8005 -28.6219 83.671 -30.5364C84.8951 -31.3523 88.2928 -29.718 88.4468 -28.2594C88.7183 -25.6508 86.045 -22.0545 85.1139 -19.6399C87.2816 -20.8739 92.1408 -24.4497 93.8212 -20.2241C94.2591 -19.1273 93.9723 -17.4397 94.0553 -16.248C95.7204 -17.7649 96.2629 -21.7315 98.4028 -22.5323C101.19 -23.5735 103.062 -19.6 102.133 -17.4814C98.7295 -9.69815 95.6523 -0.809752 90.4202 5.9516C88.8014 8.04214 83.6772 14.8619 81.2907 9.00246C80.754 7.67951 81.3957 6.03502 81.6419 4.71828C82.1999 1.74355 82.9463 -1.17852 82.9554 -4.2235C79.5976 -1.8568 76.9492 3.43379 72.7806 4.55516C70.6685 5.12298 66.2995 2.67612 66.1546 0.401275C65.9637 -2.63168 67.0612 -5.86142 67.4494 -8.84827C68.2543 -15.0341 69.0807 -21.0766 69.0807 -27.348C65.3099 -24.6696 62.5349 -19.4777 59.5225 -15.9396C57.0126 -12.9879 54.5769 -7.69803 50.8894 -6.08311C49.2613 -5.3705 45.0094 -7.80595 45.586 -9.77751C46.3539 -12.4175 49.8749 -15.0162 51.5429 -17.1732C57.0467 -24.2891 62.6058 -31.2835 69.17 -37.4522C71.5286 -39.6685 77.3622 -37.6204 78.4539 -34.743C79.647 -31.586 78.3427 -25.2458 77.4053 -22.1065L77.4058 -22.1065ZM27.1479 -11.0064C28.8101 -12.6693 30.3086 -14.5307 32.0812 -16.0695C35.3713 -18.922 37.1256 -21.0279 41.331 -18.7819C42.3053 -18.2613 43.397 -17.6946 43.6991 -16.544C44.4946 -13.5286 43.0425 -9.6824 42.6539 -6.69012C41.8366 -0.40178 41.023 5.74341 41.023 12.118C43.0977 10.5259 44.4514 8.01616 46.0271 5.9516C48.512 2.69659 51.25 -0.328993 53.7042 -3.60667C55.0487 -5.40447 57.3857 -9.28659 59.8308 -9.57371C61.5112 -9.77091 65.1093 -7.34866 64.4555 -5.45681C63.5062 -2.69859 59.9263 -0.0253747 58.104 2.25141C53.6489 7.82078 49.5203 12.9856 44.4174 17.9886C43.0362 19.3422 42.0371 21.3556 40.4032 22.4161C37.9425 24.0073 33.4227 22.0185 31.9578 19.8138C29.8644 16.6598 32.3807 10.1267 32.3895 6.56807C30.4933 8.87516 28.9981 13.876 26.1952 15.1766C24.8756 15.7872 21.6535 14.2547 21.6444 12.721C21.6272 9.94418 24.0001 6.67054 24.9898 4.10145C22.7668 5.56639 18.0371 8.99517 16.2795 4.6894C15.8138 3.55383 16.0761 1.92504 16.0483 0.71C14.4419 2.29418 13.9363 5.7903 12.0002 6.86661C9.45928 8.27879 6.99267 4.41247 7.83454 2.25141C10.9055 -5.66026 14.6178 -14.6752 19.7083 -21.4896C21.3114 -23.6324 26.368 -30.2474 28.8133 -24.5083C29.3434 -23.2596 28.6805 -21.517 28.4584 -20.2563C27.9096 -17.132 27.1479 -14.2044 27.1479 -11.0064V-11.0064ZM34.8561 -1.75653C36.3517 -2.59841 36.9437 -4.36179 37.847 -5.76482C39.6938 -8.63096 42.509 -11.1948 43.033 -14.7064C43.3476 -16.7975 39.805 -19.6476 37.7174 -19.0797C36.4626 -18.7383 36.3638 -16.0454 36.1263 -15.0147C35.1243 -10.6611 34.8561 -6.21043 34.8561 -1.75653ZM74.6303 -13.7814C72.5863 -10.0958 66.1915 -4.08739 67.0487 0.388464C67.3634 2.03628 72.0961 4.76185 73.1504 2.82137C75.5402 -1.5824 75.2471 -8.91193 75.2471 -13.7814H74.6303Z" fill="white"/>
<path d="M83.5722 122.337H83.8809C85.0404 119.855 87.1246 115.405 89.4862 113.907C90.6149 113.193 93.954 114.577 94.2529 115.895C94.8511 118.531 91.6938 122.282 90.9723 124.803C92.2487 124.008 93.507 122.666 94.9806 122.272C99.5161 121.064 99.8523 125.772 99.9137 128.811H100.223C100.743 127.002 102.245 122.969 103.956 122.038C106.028 120.911 108.594 123.717 108.294 125.728C107.881 128.503 105.778 131.504 104.635 134.053C102.072 139.751 99.763 145.663 95.9768 150.703C94.213 153.052 90.2047 158.677 87.282 153.72C86.5081 152.411 87.1707 150.519 87.4422 149.161C88.0312 146.213 88.7897 143.24 88.8141 140.219C85.2284 142.386 82.9067 147.819 78.6394 148.948C76.5335 149.504 72.0939 147.136 71.9548 144.844C71.7668 141.728 72.8245 138.352 73.2653 135.286C74.135 129.234 74.9395 123.227 74.9395 117.095C72.9137 118.122 71.6867 120.556 70.3546 122.337C67.6722 125.912 64.7369 129.266 62.0267 132.82C60.6796 134.586 58.4965 138.117 56.1317 138.511C54.3895 138.801 50.7266 136.315 51.4945 134.36C52.663 131.38 56.2919 128.524 58.3148 126.036C62.6465 120.705 66.6701 115.783 71.5356 110.916C72.9017 109.551 73.9129 107.577 75.5592 106.532C77.9333 105.03 82.5214 106.969 83.9611 109.107C86.135 112.335 83.3845 118.684 83.5729 122.337H83.5722ZM33.0083 133.128C36.3504 130.771 39.0021 125.465 43.183 124.401C45.2797 123.868 49.4728 126.308 49.6392 128.504C49.8614 131.432 48.9269 134.567 48.5172 137.444C47.6043 143.838 46.8829 150.077 46.8829 156.561C50.259 153.607 52.7409 149.213 55.6425 145.769C58.408 142.486 60.9086 137.306 64.7658 135.199C66.3876 134.315 70.43 136.394 70.3927 138.374C70.3466 140.802 65.6355 144.519 64.1863 146.386C59.9314 151.858 55.8119 156.932 50.8912 161.804C49.3557 163.322 48.0269 165.627 46.2386 166.815C43.8119 168.427 39.2703 166.444 37.8181 164.257C35.6969 161.058 38.2191 154.589 38.2499 151.011C36.3167 153.301 34.7904 158.279 32.0277 159.618C30.8128 160.207 27.2673 158.634 27.2981 157.164C27.3533 154.493 29.7708 150.968 30.8498 148.544C29.5148 149.313 28.3246 150.633 26.8418 151.098C22.528 152.448 21.9082 148.123 21.9082 145.153C20.1416 146.668 19.7472 150.591 17.5612 151.44C14.4255 152.656 13.0133 148.236 13.963 146.077C17.4192 138.242 20.4748 129.476 25.738 122.645C27.3781 120.516 32.2898 114.34 34.6733 119.935C35.2005 121.175 34.5529 122.939 34.3034 124.187C33.696 127.217 33.0083 130.018 33.0083 133.128V133.128ZM40.7165 142.686C42.1565 141.805 42.7667 140.064 43.6579 138.678C45.4956 135.824 48.1997 133.187 48.8314 129.737C49.2142 127.64 45.6405 124.817 43.5624 125.363C42.2548 125.707 42.1594 128.36 41.9128 129.428C40.963 133.567 40.2694 138.451 40.7165 142.686V142.686ZM80.4906 130.662C78.0888 134.585 73.6704 139.01 72.9273 143.611C72.5944 145.675 76.1124 148.67 78.2121 148.009C79.4824 147.609 79.5998 144.989 79.8123 143.919C80.682 139.571 81.1075 135.096 81.1075 130.662H80.4906V130.662ZM77.4058 168.894C80.1006 166.778 80.8005 162.378 83.671 160.464C84.8951 159.648 88.2928 161.282 88.4468 162.741C88.7183 165.349 86.045 168.946 85.1139 171.36C87.2816 170.126 92.1408 166.55 93.8212 170.776C94.2591 171.873 93.9723 173.56 94.0553 174.752C95.7204 173.235 96.2629 169.269 98.4028 168.468C101.19 167.426 103.062 171.4 102.133 173.519C98.7295 181.302 95.6523 190.19 90.4202 196.952C88.8014 199.042 83.6772 205.862 81.2907 200.002C80.754 198.68 81.3957 197.035 81.6419 195.718C82.1999 192.744 82.9463 189.821 82.9554 186.776C79.5976 189.143 76.9492 194.434 72.7806 195.555C70.6685 196.123 66.2995 193.676 66.1546 191.401C65.9637 188.368 67.0612 185.139 67.4494 182.152C68.2543 175.966 69.0807 169.923 69.0807 163.652C65.3099 166.33 62.5349 171.522 59.5225 175.06C57.0126 178.012 54.5769 183.302 50.8894 184.917C49.2613 185.63 45.0094 183.194 45.586 181.222C46.3539 178.582 49.8749 175.984 51.5429 173.827C57.0467 166.711 62.6058 159.717 69.17 153.548C71.5286 151.332 77.3622 153.38 78.4539 156.257C79.647 159.414 78.3427 165.754 77.4053 168.894L77.4058 168.894ZM27.1479 179.994C28.8101 178.331 30.3086 176.469 32.0812 174.93C35.3713 172.078 37.1256 169.972 41.331 172.218C42.3053 172.739 43.397 173.305 43.6991 174.456C44.4946 177.471 43.0425 181.318 42.6539 184.31C41.8366 190.598 41.023 196.743 41.023 203.118C43.0977 201.526 44.4514 199.016 46.0271 196.952C48.512 193.697 51.25 190.671 53.7042 187.393C55.0487 185.596 57.3857 181.713 59.8308 181.426C61.5112 181.229 65.1093 183.651 64.4555 185.543C63.5062 188.301 59.9263 190.975 58.104 193.251C53.6489 198.821 49.5203 203.986 44.4174 208.989C43.0362 210.342 42.0371 212.356 40.4032 213.416C37.9425 215.007 33.4227 213.018 31.9578 210.814C29.8644 207.66 32.3807 201.127 32.3895 197.568C30.4933 199.875 28.9981 204.876 26.1952 206.177C24.8756 206.787 21.6535 205.255 21.6444 203.721C21.6272 200.944 24.0001 197.671 24.9898 195.101C22.7668 196.566 18.0371 199.995 16.2795 195.689C15.8138 194.554 16.0761 192.925 16.0483 191.71C14.4419 193.294 13.9363 196.79 12.0002 197.867C9.45928 199.279 6.99267 195.412 7.83454 193.251C10.9055 185.34 14.6178 176.325 19.7083 169.51C21.3114 167.368 26.368 160.753 28.8133 166.492C29.3434 167.74 28.6805 169.483 28.4584 170.744C27.9096 173.868 27.1479 176.796 27.1479 179.994V179.994ZM34.8561 189.243C36.3517 188.402 36.9437 186.638 37.847 185.235C39.6938 182.369 42.509 179.805 43.033 176.294C43.3476 174.202 39.805 171.352 37.7174 171.92C36.4626 172.262 36.3638 174.955 36.1263 175.985C35.1243 180.339 34.8561 184.79 34.8561 189.243ZM74.6303 177.219C72.5863 180.904 66.1915 186.913 67.0487 191.388C67.3634 193.036 72.0961 195.762 73.1504 193.821C75.5402 189.418 75.2471 182.088 75.2471 177.219H74.6303Z" fill="white"/>
<path d="M83.5722 217.337H83.8809C85.0404 214.855 87.1246 210.405 89.4862 208.907C90.6149 208.193 93.954 209.577 94.2529 210.895C94.8511 213.531 91.6938 217.282 90.9723 219.803C92.2487 219.008 93.507 217.666 94.9806 217.272C99.5161 216.064 99.8523 220.772 99.9137 223.811H100.223C100.743 222.002 102.245 217.969 103.956 217.038C106.028 215.911 108.594 218.717 108.294 220.728C107.881 223.503 105.778 226.504 104.635 229.053C102.072 234.751 99.763 240.663 95.9768 245.703C94.213 248.052 90.2047 253.677 87.282 248.72C86.5081 247.411 87.1707 245.519 87.4422 244.161C88.0312 241.213 88.7897 238.24 88.8141 235.219C85.2284 237.386 82.9067 242.819 78.6394 243.948C76.5335 244.504 72.0939 242.136 71.9548 239.844C71.7668 236.728 72.8245 233.352 73.2653 230.286C74.135 224.234 74.9395 218.227 74.9395 212.095C72.9137 213.122 71.6867 215.556 70.3546 217.337C67.6722 220.912 64.7369 224.266 62.0267 227.82C60.6796 229.586 58.4965 233.117 56.1317 233.511C54.3895 233.801 50.7266 231.315 51.4945 229.36C52.663 226.38 56.2919 223.524 58.3148 221.036C62.6465 215.705 66.6701 210.783 71.5356 205.916C72.9017 204.551 73.9129 202.577 75.5592 201.532C77.9333 200.03 82.5214 201.969 83.9611 204.107C86.135 207.335 83.3845 213.684 83.5729 217.337H83.5722ZM33.0083 228.128C36.3504 225.771 39.0021 220.465 43.183 219.401C45.2797 218.868 49.4728 221.308 49.6392 223.504C49.8614 226.432 48.9269 229.567 48.5172 232.444C47.6043 238.838 46.8829 245.077 46.8829 251.561C50.259 248.607 52.7409 244.213 55.6425 240.769C58.408 237.486 60.9086 232.306 64.7658 230.199C66.3876 229.315 70.43 231.394 70.3927 233.374C70.3466 235.802 65.6355 239.519 64.1863 241.386C59.9314 246.858 55.8119 251.932 50.8912 256.804C49.3557 258.322 48.0269 260.627 46.2386 261.815C43.8119 263.427 39.2703 261.444 37.8181 259.257C35.6969 256.058 38.2191 249.589 38.2499 246.011C36.3167 248.301 34.7904 253.279 32.0277 254.618C30.8128 255.207 27.2673 253.634 27.2981 252.164C27.3533 249.493 29.7708 245.968 30.8498 243.544C29.5148 244.313 28.3246 245.633 26.8418 246.098C22.528 247.448 21.9082 243.123 21.9082 240.153C20.1416 241.668 19.7472 245.591 17.5612 246.44C14.4255 247.656 13.0133 243.236 13.963 241.077C17.4192 233.242 20.4748 224.476 25.738 217.645C27.3781 215.516 32.2898 209.34 34.6733 214.935C35.2005 216.175 34.5529 217.939 34.3034 219.187C33.696 222.217 33.0083 225.018 33.0083 228.128V228.128ZM40.7165 237.686C42.1565 236.805 42.7667 235.064 43.6579 233.678C45.4956 230.824 48.1997 228.187 48.8314 224.737C49.2142 222.64 45.6405 219.817 43.5624 220.363C42.2548 220.707 42.1594 223.36 41.9128 224.428C40.963 228.567 40.2694 233.451 40.7165 237.686V237.686ZM80.4906 225.662C78.0888 229.585 73.6704 234.01 72.9273 238.611C72.5944 240.675 76.1124 243.67 78.2121 243.009C79.4824 242.609 79.5998 239.989 79.8123 238.919C80.682 234.571 81.1075 230.096 81.1075 225.662H80.4906V225.662ZM77.4058 263.894C80.1006 261.778 80.8005 257.378 83.671 255.464C84.8951 254.648 88.2928 256.282 88.4468 257.741C88.7183 260.349 86.045 263.946 85.1139 266.36C87.2816 265.126 92.1408 261.55 93.8212 265.776C94.2591 266.873 93.9723 268.56 94.0553 269.752C95.7204 268.235 96.2629 264.269 98.4028 263.468C101.19 262.426 103.062 266.4 102.133 268.519C98.7295 276.302 95.6523 285.19 90.4202 291.952C88.8014 294.042 83.6772 300.862 81.2907 295.002C80.754 293.68 81.3957 292.035 81.6419 290.718C82.1999 287.744 82.9463 284.821 82.9554 281.776C79.5976 284.143 76.9492 289.434 72.7806 290.555C70.6685 291.123 66.2995 288.676 66.1546 286.401C65.9637 283.368 67.0612 280.139 67.4494 277.152C68.2543 270.966 69.0807 264.923 69.0807 258.652C65.3099 261.33 62.5349 266.522 59.5225 270.06C57.0126 273.012 54.5769 278.302 50.8894 279.917C49.2613 280.63 45.0094 278.194 45.586 276.222C46.3539 273.582 49.8749 270.984 51.5429 268.827C57.0467 261.711 62.6058 254.717 69.17 248.548C71.5286 246.332 77.3622 248.38 78.4539 251.257C79.647 254.414 78.3427 260.754 77.4053 263.894L77.4058 263.894ZM27.1479 274.994C28.8101 273.331 30.3086 271.469 32.0812 269.93C35.3713 267.078 37.1256 264.972 41.331 267.218C42.3053 267.739 43.397 268.305 43.6991 269.456C44.4946 272.471 43.0425 276.318 42.6539 279.31C41.8366 285.598 41.023 291.743 41.023 298.118C43.0977 296.526 44.4514 294.016 46.0271 291.952C48.512 288.697 51.25 285.671 53.7042 282.393C55.0487 280.596 57.3857 276.713 59.8308 276.426C61.5112 276.229 65.1093 278.651 64.4555 280.543C63.5062 283.301 59.9263 285.975 58.104 288.251C53.6489 293.821 49.5203 298.986 44.4174 303.989C43.0362 305.342 42.0371 307.356 40.4032 308.416C37.9425 310.007 33.4227 308.018 31.9578 305.814C29.8644 302.66 32.3807 296.127 32.3895 292.568C30.4933 294.875 28.9981 299.876 26.1952 301.177C24.8756 301.787 21.6535 300.255 21.6444 298.721C21.6272 295.944 24.0001 292.671 24.9898 290.101C22.7668 291.566 18.0371 294.995 16.2795 290.689C15.8138 289.554 16.0761 287.925 16.0483 286.71C14.4419 288.294 13.9363 291.79 12.0002 292.867C9.45928 294.279 6.99267 290.412 7.83454 288.251C10.9055 280.34 14.6178 271.325 19.7083 264.51C21.3114 262.368 26.368 255.753 28.8133 261.492C29.3434 262.74 28.6805 264.483 28.4584 265.744C27.9096 268.868 27.1479 271.796 27.1479 274.994V274.994ZM34.8561 284.243C36.3517 283.402 36.9437 281.638 37.847 280.235C39.6938 277.369 42.509 274.805 43.033 271.294C43.3476 269.202 39.805 266.352 37.7174 266.92C36.4626 267.262 36.3638 269.955 36.1263 270.985C35.1243 275.339 34.8561 279.79 34.8561 284.243ZM74.6303 272.219C72.5863 275.904 66.1915 281.913 67.0487 286.388C67.3634 288.036 72.0961 290.762 73.1504 288.821C75.5402 284.418 75.2471 277.088 75.2471 272.219H74.6303Z" fill="white"/>
<path d="M79.5722 309.337H79.8809C81.0404 306.855 83.1246 302.405 85.4862 300.907C86.6149 300.193 89.954 301.577 90.2529 302.895C90.8511 305.531 87.6938 309.282 86.9723 311.803C88.2487 311.008 89.507 309.666 90.9806 309.272C95.5161 308.064 95.8523 312.772 95.9137 315.811H96.2226C96.7435 314.002 98.245 309.969 99.9561 309.038C102.028 307.911 104.594 310.717 104.294 312.728C103.881 315.503 101.778 318.504 100.635 321.053C98.0722 326.751 95.763 332.663 91.9768 337.703C90.213 340.052 86.2047 345.677 83.282 340.72C82.5081 339.411 83.1707 337.519 83.4422 336.161C84.0312 333.213 84.7897 330.24 84.8141 327.219C81.2284 329.386 78.9067 334.819 74.6394 335.948C72.5335 336.504 68.0939 334.136 67.9548 331.844C67.7668 328.728 68.8245 325.352 69.2653 322.286C70.135 316.234 70.9395 310.227 70.9395 304.095C68.9137 305.122 67.6867 307.556 66.3546 309.337C63.6722 312.912 60.7369 316.266 58.0267 319.82C56.6796 321.586 54.4965 325.117 52.1317 325.511C50.3895 325.801 46.7266 323.315 47.4945 321.36C48.663 318.38 52.2919 315.524 54.3148 313.036C58.6465 307.705 62.6701 302.783 67.5356 297.916C68.9017 296.551 69.9129 294.577 71.5592 293.532C73.9333 292.03 78.5214 293.969 79.9611 296.107C82.135 299.335 79.3845 305.684 79.5729 309.337H79.5722ZM29.0083 320.128C32.3504 317.771 35.0021 312.465 39.183 311.401C41.2797 310.868 45.4728 313.308 45.6392 315.504C45.8614 318.432 44.9269 321.567 44.5172 324.444C43.6043 330.838 42.8829 337.077 42.8829 343.561C46.259 340.607 48.7409 336.213 51.6425 332.769C54.408 329.486 56.9086 324.306 60.7658 322.199C62.3876 321.315 66.43 323.394 66.3927 325.374C66.3466 327.802 61.6355 331.519 60.1863 333.386C55.9314 338.858 51.8119 343.932 46.8912 348.804C45.3557 350.322 44.0269 352.627 42.2386 353.815C39.8119 355.427 35.2703 353.444 33.8181 351.257C31.6969 348.058 34.2191 341.589 34.2499 338.011C32.3167 340.301 30.7904 345.279 28.0277 346.618C26.8128 347.207 23.2673 345.634 23.2981 344.164C23.3533 341.493 25.7708 337.968 26.8498 335.544C25.5148 336.313 24.3246 337.633 22.8418 338.098C18.528 339.448 17.9082 335.123 17.9082 332.153C16.1416 333.668 15.7472 337.591 13.5612 338.44C10.4255 339.656 9.01325 335.236 9.96304 333.077C13.4192 325.242 16.4748 316.476 21.738 309.645C23.3781 307.516 28.2898 301.34 30.6733 306.935C31.2005 308.175 30.5529 309.939 30.3034 311.187C29.696 314.217 29.0083 317.018 29.0083 320.128V320.128ZM36.7165 329.686C38.1565 328.805 38.7667 327.064 39.6579 325.678C41.4956 322.824 44.1997 320.187 44.8314 316.737C45.2142 314.64 41.6405 311.817 39.5624 312.363C38.2548 312.707 38.1594 315.36 37.9128 316.428C36.963 320.567 36.2694 325.451 36.7165 329.686V329.686ZM76.4906 317.662C74.0888 321.585 69.6704 326.01 68.9273 330.611C68.5944 332.675 72.1124 335.67 74.2121 335.009C75.4824 334.609 75.5998 331.989 75.8123 330.919C76.682 326.571 77.1075 322.096 77.1075 317.662H76.4906V317.662ZM73.4058 355.894C76.1006 353.778 76.8005 349.378 79.671 347.464C80.8951 346.648 84.2928 348.282 84.4468 349.741C84.7183 352.349 82.045 355.946 81.1139 358.36C83.2816 357.126 88.1408 353.55 89.8212 357.776C90.2591 358.873 89.9723 360.56 90.0553 361.752C91.7204 360.235 92.2629 356.269 94.4028 355.468C97.1899 354.426 99.0616 358.4 98.1334 360.519C94.7295 368.302 91.6523 377.19 86.4202 383.952C84.8014 386.042 79.6772 392.862 77.2907 387.002C76.754 385.68 77.3957 384.035 77.6419 382.718C78.1999 379.744 78.9463 376.821 78.9554 373.776C75.5976 376.143 72.9492 381.434 68.7806 382.555C66.6685 383.123 62.2995 380.676 62.1546 378.401C61.9637 375.368 63.0612 372.139 63.4494 369.152C64.2543 362.966 65.0807 356.923 65.0807 350.652C61.3099 353.33 58.5349 358.522 55.5225 362.06C53.0126 365.012 50.5769 370.302 46.8894 371.917C45.2613 372.63 41.0094 370.194 41.586 368.222C42.3539 365.582 45.8749 362.984 47.5429 360.827C53.0467 353.711 58.6058 346.717 65.17 340.548C67.5286 338.332 73.3622 340.38 74.4539 343.257C75.647 346.414 74.3427 352.754 73.4053 355.894L73.4058 355.894ZM23.1479 366.994C24.8101 365.331 26.3086 363.469 28.0812 361.93C31.3713 359.078 33.1256 356.972 37.331 359.218C38.3053 359.739 39.397 360.305 39.6991 361.456C40.4946 364.471 39.0425 368.318 38.6539 371.31C37.8366 377.598 37.023 383.743 37.023 390.118C39.0977 388.526 40.4514 386.016 42.0271 383.952C44.512 380.697 47.25 377.671 49.7042 374.393C51.0487 372.596 53.3857 368.713 55.8308 368.426C57.5112 368.229 61.1093 370.651 60.4555 372.543C59.5062 375.301 55.9263 377.975 54.104 380.251C49.6489 385.821 45.5203 390.986 40.4174 395.989C39.0362 397.342 38.0371 399.356 36.4032 400.416C33.9425 402.007 29.4227 400.018 27.9578 397.814C25.8644 394.66 28.3807 388.127 28.3895 384.568C26.4933 386.875 24.9981 391.876 22.1952 393.177C20.8756 393.787 17.6535 392.255 17.6444 390.721C17.6272 387.944 20.0001 384.671 20.9898 382.101C18.7668 383.566 14.0371 386.995 12.2795 382.689C11.8138 381.554 12.0761 379.925 12.0483 378.71C10.4419 380.294 9.93628 383.79 8.00018 384.867C5.45928 386.279 2.99267 382.412 3.83454 380.251C6.90552 372.34 10.6178 363.325 15.7083 356.51C17.3114 354.368 22.368 347.753 24.8133 353.492C25.3434 354.74 24.6805 356.483 24.4584 357.744C23.9096 360.868 23.1479 363.796 23.1479 366.994V366.994ZM30.8561 376.243C32.3517 375.402 32.9437 373.638 33.847 372.235C35.6938 369.369 38.509 366.805 39.033 363.294C39.3476 361.202 35.805 358.352 33.7174 358.92C32.4626 359.262 32.3638 361.955 32.1263 362.985C31.1243 367.339 30.8561 371.79 30.8561 376.243ZM70.6303 364.219C68.5863 367.904 62.1915 373.913 63.0487 378.388C63.3634 380.036 68.0961 382.762 69.1504 380.821C71.5402 376.418 71.2471 369.088 71.2471 364.219H70.6303Z" fill="white"/>
</g>
<defs>
<clipPath id="clip0_205_6">
<rect width="625" height="383" fill="white"/>
</clipPath>
</defs>
</svg>
